<?xml version="1.0" standalone="no"?>
<!DOCTYPE svg PUBLIC "-//W3C//DTD SVG 20010904//EN"
 "http://www.w3.org/TR/2001/REC-SVG-20010904/DTD/svg10.dtd">
<svg version="1.0" xmlns="http://www.w3.org/2000/svg"
 width="1113.000000pt" height="224.000000pt" viewBox="0 0 1113.000000 224.000000"
 preserveAspectRatio="xMidYMid meet">

<g transform="translate(0.000000,224.000000) scale(0.100000,-0.100000)"
fill="#000000" stroke="none">
<path d="M7112 1653 c-6 -2 -10 -9 -6 -14 3 -5 -5 -8 -17 -6 -12 1 -23 -4 -25
-11 -1 -7 0 -8 3 -2 2 5 10 10 16 10 7 0 -1 -11 -16 -25 -15 -14 -28 -34 -29
-43 -5 -50 -3 -80 6 -75 5 4 7 -1 3 -10 -3 -8 1 -21 9 -28 12 -10 13 -9 8 6
-5 13 -4 16 4 11 7 -4 12 -14 12 -22 0 -8 7 -14 15 -14 8 0 15 -4 15 -9 0 -5
23 -9 50 -9 28 0 50 4 50 9 0 5 5 9 11 9 7 0 21 11 33 25 21 25 26 77 13 140
-8 40 -107 77 -155 58z m95 -20 c-4 -3 1 -12 11 -20 15 -13 15 -13 -5 -3 -24
11 -31 30 -11 30 6 0 8 -3 5 -7z m-45 -10 c-12 -2 -20 -9 -17 -14 3 -5 -1 -6
-10 -2 -13 5 -14 7 -3 14 7 5 22 8 33 7 17 -1 17 -1 -3 -5z m-52 -13 c0 -5 -5
-10 -11 -10 -5 0 -7 5 -4 10 3 6 8 10 11 10 2 0 4 -4 4 -10z m105 -40 c3 -5 1
-10 -4 -10 -6 0 -11 5 -11 10 0 6 2 10 4 10 3 0 8 -4 11 -10z m45 -63 c0 -20
-7 -36 -18 -43 -16 -10 -18 -8 -20 17 -1 16 3 29 9 29 6 0 9 -7 5 -15 -3 -8
-1 -15 5 -15 7 0 9 10 5 24 -5 20 0 36 11 36 2 0 3 -15 3 -33z m-160 3 c8 -5
11 -10 5 -10 -5 0 -17 5 -25 10 -8 5 -10 10 -5 10 6 0 17 -5 25 -10z m-30 -21
c0 -6 -4 -7 -10 -4 -5 3 -10 11 -10 16 0 6 5 7 10 4 6 -3 10 -11 10 -16z m33
-35 c-7 -20 -10 -18 -15 11 -4 20 -2 23 8 14 7 -6 10 -17 7 -25z m51 -17 c19
3 36 1 39 -3 3 -5 -13 -9 -36 -9 -24 0 -41 5 -43 13 -1 7 0 8 2 3 3 -5 20 -7
38 -4z"/>
<path d="M1270 1036 l0 -585 99 -3 100 -3 -5 25 c-4 22 -3 21 10 -5 13 -27 14
-8 15 208 1 227 2 237 20 237 27 0 51 -10 51 -22 0 -5 6 -16 14 -24 11 -11 16
-11 20 -1 3 6 3 2 0 -11 -3 -13 1 -28 10 -38 9 -9 14 -19 11 -24 -3 -5 4 -15
15 -23 11 -7 17 -16 14 -19 -3 -3 6 -14 19 -24 13 -11 22 -26 20 -34 -4 -12
-3 -12 5 -1 12 16 27 -3 16 -21 -5 -7 -3 -8 6 -3 10 6 12 4 7 -7 -3 -9 1 -24
8 -35 8 -10 15 -13 15 -8 0 6 -6 17 -12 25 -11 12 -10 12 5 0 10 -7 15 -20 12
-27 -6 -17 29 -65 40 -55 5 4 5 -1 2 -11 -4 -11 -1 -20 8 -23 8 -4 12 -11 8
-17 -3 -6 -1 -7 5 -3 9 5 9 13 1 27 -15 29 -4 56 16 39 12 -10 13 -16 4 -27
-7 -7 -9 -16 -6 -20 4 -3 2 -15 -4 -26 -8 -14 -8 -18 0 -13 6 4 11 2 11 -3 0
-6 3 -10 8 -10 22 4 42 -2 37 -11 -3 -5 -13 -6 -23 -3 -12 4 -14 3 -7 -5 14
-15 53 -4 58 17 4 14 5 14 6 -1 1 -16 12 -18 99 -17 53 1 89 3 80 6 -9 2 -15
10 -12 16 2 7 -3 21 -11 32 -16 20 -16 20 -6 -1 7 -15 7 -21 -3 -21 -8 0 -12
10 -10 26 3 31 -12 52 -32 44 -9 -3 -12 0 -9 9 4 9 -4 22 -19 32 -15 9 -26 21
-26 27 0 7 6 6 17 -2 15 -13 15 -12 2 9 -8 12 -17 22 -22 22 -4 0 -6 3 -4 8 6
8 -37 73 -49 75 -5 1 -8 8 -8 14 1 7 -9 24 -22 38 -13 14 -24 30 -24 35 0 5
-7 7 -15 4 -15 -6 -54 31 -55 51 0 6 5 3 10 -5 8 -13 10 -12 10 3 0 9 -10 27
-22 39 -12 12 -15 19 -7 16 18 -7 62 9 55 20 -3 5 1 9 9 9 8 0 12 -4 9 -9 -4
-5 17 3 46 17 39 20 50 29 41 38 -21 21 -12 36 19 34 25 -2 28 -4 15 -14 -11
-7 -12 -13 -6 -18 6 -3 16 5 23 19 6 14 15 26 19 26 4 0 9 10 11 23 2 12 9 21
16 19 8 -1 11 2 7 8 -3 5 -1 10 6 10 7 0 9 3 6 7 -4 3 -3 11 2 17 15 18 21 66
9 66 -6 0 -5 7 3 16 14 17 24 95 11 93 -18 -3 -26 2 -16 9 7 4 9 21 6 42 l-6
35 -8 -30 c-6 -24 -7 -21 -4 15 4 45 4 45 -9 15 l-14 -30 3 40 c2 48 -12 80
-55 120 -18 17 -29 24 -24 16 5 -9 3 -12 -6 -9 -8 3 -13 10 -12 17 2 6 -14 19
-35 29 -37 18 -66 18 -89 0 -8 -6 -10 -4 -6 11 4 17 0 19 -44 16 -31 -3 -39
-1 -23 3 13 4 -61 7 -165 6 -105 0 -199 -4 -210 -8 -16 -6 -17 -6 -5 3 12 8 4
11 -32 11 l-47 0 -1 -584z m238 567 c-10 -2 -26 -2 -35 0 -10 3 -2 5 17 5 19
0 27 -2 18 -5z m399 -51 c-18 -4 -18 -4 0 -18 17 -14 16 -14 -4 -5 -28 14 -36
14 -27 0 4 -8 0 -8 -15 0 -11 7 -21 14 -21 17 0 3 4 2 10 -1 5 -3 18 -1 27 4
16 9 16 10 -4 11 -12 0 -24 4 -27 9 -3 5 13 4 37 -2 26 -7 35 -13 24 -15z
m-119 -20 c2 -7 -3 -12 -12 -12 -9 0 -16 7 -16 16 0 17 22 14 28 -4z m190 -38
c-4 -3 -12 5 -18 18 -12 22 -12 22 6 6 10 -10 15 -20 12 -24z m-41 4 c-3 -8
-6 -5 -6 6 -1 11 2 17 5 13 3 -3 4 -12 1 -19z m-7 -23 c0 -11 -29 -11 -33 -1
-4 10 1 12 14 9 10 -3 19 -7 19 -8z m-115 -5 c-3 -5 -16 -10 -28 -10 -18 0
-19 2 -7 10 20 13 43 13 35 0z m170 -2 c14 -6 25 -18 24 -27 0 -10 -2 -12 -6
-3 -8 21 -23 13 -23 -13 0 -31 -17 -33 -22 -2 -2 14 -9 21 -20 21 -10 -1 -15
2 -12 7 3 5 17 7 32 3 26 -5 26 -5 8 10 -23 19 -17 20 19 4z m-481 -40 c3 6
37 8 83 5 43 -3 90 -5 106 -6 15 -1 27 -5 27 -9 0 -5 6 -8 14 -8 7 0 30 -11
50 -25 20 -13 36 -20 36 -15 0 6 -5 10 -11 10 -6 0 -8 7 -5 16 4 11 1 14 -12
10 -19 -6 -60 20 -49 31 4 3 13 -1 20 -11 10 -14 17 -15 41 -6 16 6 31 8 34 5
3 -3 0 -5 -8 -5 -10 0 -10 -3 0 -15 11 -13 10 -15 -6 -9 -17 5 -17 4 -4 -8 9
-7 14 -21 12 -31 -2 -9 2 -19 10 -22 17 -7 15 -129 -2 -150 -6 -8 -8 -20 -4
-26 4 -8 3 -9 -5 -5 -6 4 -20 4 -32 1 -17 -6 -18 -9 -7 -23 11 -13 11 -14 0
-8 -7 4 -18 4 -25 -1 -7 -5 -34 -10 -62 -11 -27 -2 -57 -10 -66 -18 -10 -9
-27 -12 -47 -9 -92 15 -97 15 -82 5 16 -10 10 -13 -12 -5 -10 4 -12 36 -10
146 3 110 1 144 -10 150 -9 6 -9 9 -1 9 7 0 10 10 7 28 -3 18 -1 23 5 13 5 -8
11 -9 15 -3z m380 -33 c-4 -8 -10 -15 -15 -15 -5 0 -9 7 -9 15 0 8 7 15 15 15
9 0 12 -6 9 -15z m143 -72 c-3 -10 -5 -4 -5 12 0 17 2 24 5 18 2 -7 2 -21 0
-30z m-555 -15 c-9 -9 -12 -7 -12 12 0 19 3 21 12 12 9 -9 9 -15 0 -24z m547
-23 c0 -5 -4 -3 -9 5 -5 8 -9 22 -9 30 0 16 17 -16 18 -35z m-572 3 c-3 -7 -5
-2 -5 12 0 14 2 19 5 13 2 -7 2 -19 0 -25z m453 -18 c0 -5 -4 -10 -10 -10 -5
0 -10 5 -10 10 0 6 5 10 10 10 6 0 10 -4 10 -10z m107 -22 c-3 -8 -6 -5 -6 6
-1 11 2 17 5 13 3 -3 4 -12 1 -19z m-87 -20 c-1 -28 -2 -30 -11 -15 -6 10 -8
25 -5 33 9 24 16 16 16 -18z m119 -14 c-20 -22 -22 -27 -10 -46 10 -16 10 -22
1 -28 -7 -4 -10 -12 -8 -16 3 -5 -4 -18 -15 -29 -11 -11 -17 -14 -13 -7 4 6 2
12 -3 12 -6 0 -11 5 -11 11 0 6 7 8 16 5 12 -5 14 -1 9 15 -5 15 -4 19 4 15 6
-4 11 0 11 9 0 9 -4 14 -9 11 -4 -3 -6 7 -3 22 6 30 45 77 51 61 2 -6 -7 -22
-20 -35z m11 -24 c0 -5 -2 -10 -4 -10 -3 0 -8 5 -11 10 -3 6 -1 10 4 10 6 0
11 -4 11 -10z m-83 -22 c-3 -8 -6 -5 -6 6 -1 11 2 17 5 13 3 -3 4 -12 1 -19z
m-491 -42 c-3 -13 -13 -23 -22 -23 -15 0 -15 1 0 12 9 7 17 25 17 41 1 18 3
22 6 11 3 -10 2 -29 -1 -41z m342 -1 c-3 -3 -9 2 -12 12 -6 14 -5 15 5 6 7 -7
10 -15 7 -18z m62 7 c0 -5 -7 -9 -15 -9 -8 0 -12 4 -9 9 3 4 9 8 15 8 5 0 9
-4 9 -8z m-170 -42 c-33 -11 -79 -12 -63 -2 7 4 29 8 50 9 33 1 35 0 13 -7z
m238 -18 c6 -18 -15 -14 -22 4 -4 10 -1 14 6 12 6 -2 14 -10 16 -16z m-450
-19 c-14 -13 -21 -14 -40 -5 -22 11 -21 11 6 5 20 -4 27 -3 22 6 -4 7 0 11 11
11 16 0 16 -1 1 -17z m215 10 c-7 -2 -19 -2 -25 0 -7 3 -2 5 12 5 14 0 19 -2
13 -5z m-66 -9 c-3 -3 -12 -4 -19 -1 -8 3 -5 6 6 6 11 1 17 -2 13 -5z m-64
-11 c-13 -2 -35 -2 -50 0 -16 2 -5 4 22 4 28 0 40 -2 28 -4z m130 0 c-7 -2
-19 -2 -25 0 -7 3 -2 5 12 5 14 0 19 -2 13 -5z m182 -53 c-3 -5 -11 -10 -16
-10 -6 0 -7 5 -4 10 3 6 11 10 16 10 6 0 7 -4 4 -10z m-341 -36 c8 -3 12 -12
9 -20 -3 -10 0 -12 10 -9 18 7 32 -24 17 -39 -7 -7 -15 -3 -28 14 -9 14 -16
29 -14 34 2 5 -3 13 -10 17 -15 10 -6 12 16 3z m256 -10 c0 -2 -11 -3 -24 -2
-14 1 -23 5 -20 9 4 7 44 0 44 -7z m-316 -23 c-4 -3 -9 0 -11 7 -3 6 -10 9
-15 6 -7 -4 -8 -2 -4 5 6 9 11 9 22 0 8 -6 12 -15 8 -18z m-44 -76 c-7 -45 -7
-46 -9 -13 -1 32 8 74 14 66 1 -2 -1 -25 -5 -53z m24 10 c3 -8 1 -15 -4 -15
-6 0 -10 7 -10 15 0 8 2 15 4 15 2 0 6 -7 10 -15z m308 -47 c-7 -7 -12 -8 -12
-2 0 14 12 26 19 19 2 -3 -1 -11 -7 -17z m-307 -17 c3 -5 1 -12 -5 -16 -5 -3
-10 1 -10 9 0 18 6 21 15 7z m169 -6 c-4 -8 -11 -12 -16 -9 -6 4 -5 10 3 15
19 12 19 11 13 -6z m30 0 c-4 -8 -8 -15 -10 -15 -2 0 -4 7 -4 15 0 8 4 15 10
15 5 0 7 -7 4 -15z m206 -19 c10 -13 10 -17 3 -12 -18 10 -16 -9 2 -24 17 -14
20 -30 6 -30 -9 0 -22 31 -27 69 -2 13 -2 22 -1 20 2 -2 9 -13 17 -23z m-33
-18 c-3 -8 -6 -5 -6 6 -1 11 2 17 5 13 3 -3 4 -12 1 -19z m-162 -7 c-8 -14
-25 -14 -25 0 0 5 5 7 10 4 6 -3 10 -1 10 6 0 7 3 10 6 6 3 -3 3 -10 -1 -16z
m46 -53 c8 -15 8 -18 0 -14 -6 4 -16 16 -22 28 -8 15 -8 18 0 14 6 -4 16 -16
22 -28z m22 15 c-4 -9 0 -11 11 -7 10 4 16 1 16 -8 0 -22 -27 -17 -38 7 -8 16
-7 22 3 22 7 0 11 -6 8 -14z m-281 -65 c-9 -9 -12 -4 -11 23 0 32 1 33 11 11
8 -17 8 -26 0 -34z m467 29 c0 -9 -2 -8 -6 1 -2 6 -10 9 -15 6 -7 -4 -8 -2 -4
5 9 13 26 5 25 -12z m-79 -37 c0 -5 -5 -10 -11 -10 -5 0 -7 5 -4 10 3 6 8 10
11 10 2 0 4 -4 4 -10z m100 -42 c0 -12 -6 -9 -26 13 -19 22 -19 22 4 8 12 -8
22 -17 22 -21z m62 -70 c-8 -8 -9 -4 -5 13 4 13 8 18 11 10 2 -7 -1 -18 -6
-23z m-138 6 c4 -12 2 -15 -9 -10 -10 3 -15 -1 -15 -12 0 -14 -2 -14 -9 -3 -6
9 -5 19 2 27 16 18 24 17 31 -2z m116 1 c0 -8 -4 -15 -9 -15 -13 0 -22 16 -14
24 11 11 23 6 23 -9z m-20 -30 c0 -8 -7 -15 -15 -15 -16 0 -20 12 -8 23 11 12
23 8 23 -8z m-530 -25 c0 -5 -5 -10 -11 -10 -5 0 -7 5 -4 10 3 6 8 10 11 10 2
0 4 -4 4 -10z"/>
<path d="M1575 900 c3 -5 8 -10 11 -10 2 0 4 5 4 10 0 6 -5 10 -11 10 -5 0 -7
-4 -4 -10z"/>
<path d="M4465 1029 c0 -324 1 -585 3 -580 1 4 13 7 25 5 12 -2 58 -5 102 -7
l80 -3 -2 356 c-2 418 -3 446 -13 430 -4 -6 -7 2 -6 18 1 25 3 28 16 19 8 -7
18 -16 22 -22 5 -6 8 -3 8 7 0 9 4 20 10 23 7 4 7 -3 0 -20 -8 -21 -6 -33 7
-56 17 -29 33 -38 33 -19 0 6 -4 10 -8 10 -5 0 -7 13 -4 30 2 16 8 27 13 24
11 -7 9 -62 -4 -87 -6 -13 -4 -24 7 -36 9 -10 14 -20 12 -22 -2 -2 3 -11 12
-19 14 -13 15 -12 7 5 -4 11 -7 27 -7 35 6 58 8 69 13 74 8 8 3 -60 -5 -73 -4
-5 -1 -13 5 -16 6 -4 8 -18 4 -32 -7 -31 3 -65 17 -57 7 5 9 1 5 -9 -4 -12 -2
-14 10 -10 12 5 14 1 8 -17 -4 -14 -3 -20 3 -16 5 3 13 -1 16 -10 3 -8 2 -12
-4 -9 -13 8 -12 5 1 -33 6 -18 14 -30 17 -28 4 2 13 -2 20 -10 9 -9 9 -14 2
-14 -7 0 -10 -6 -7 -12 2 -7 9 -12 15 -11 6 2 9 -4 6 -12 -4 -8 -1 -15 6 -15
6 0 9 -4 5 -9 -3 -5 2 -16 11 -25 8 -9 12 -21 8 -27 -5 -8 -3 -9 6 -4 10 6 12
3 7 -14 -4 -17 0 -24 17 -31 23 -8 37 -30 35 -53 0 -7 -7 2 -14 18 -17 36 -19
21 -4 -23 10 -29 12 -30 26 -16 22 21 36 4 23 -27 -10 -23 -10 -23 -5 4 4 19
2 26 -5 22 -17 -11 -11 -44 10 -55 11 -6 20 -16 20 -23 0 -7 -4 -6 -10 3 -18
28 -10 -3 14 -55 23 -47 27 -51 58 -49 18 1 40 -2 50 -7 12 -7 18 -6 18 1 0
12 -13 18 -48 23 -12 2 -28 9 -35 17 -10 10 -9 11 2 5 11 -6 13 -2 7 18 -4 16
-1 29 6 33 7 5 9 2 6 -7 -7 -17 8 -59 21 -59 5 0 7 9 4 20 -3 11 0 20 6 20 6
0 11 -9 11 -20 0 -11 6 -20 13 -20 18 1 47 25 47 41 0 11 -2 11 -11 -1 -8 -11
-9 -9 -3 10 4 14 9 31 12 38 2 7 1 12 -4 11 -5 -1 -17 -1 -26 0 -22 1 -24 31
-3 31 8 0 19 9 25 19 11 22 51 25 43 4 -3 -7 -1 -13 4 -13 11 0 36 50 29 57
-7 8 18 32 27 26 5 -3 7 1 6 8 -2 8 8 32 22 54 13 22 24 51 24 65 1 30 15 74
22 67 2 -3 0 -16 -7 -29 -11 -22 -11 -22 5 -3 11 14 14 31 10 55 -5 30 -4 33
8 18 11 -14 14 -13 30 13 9 17 12 27 7 24 -6 -3 -7 1 -4 9 3 9 11 13 17 9 6
-3 7 -1 3 6 -4 6 0 18 8 26 8 9 12 23 9 32 -4 10 -2 14 4 10 5 -3 17 11 27 31
11 25 12 31 2 19 -12 -16 -14 -16 -20 -2 -3 9 -2 13 4 10 6 -3 10 3 10 14 0
11 5 23 10 26 6 3 10 1 10 -5 0 -6 4 -9 10 -5 5 3 6 13 3 22 -5 12 -3 14 8 8
12 -8 12 -6 0 8 -8 10 -11 20 -7 24 3 3 6 1 6 -6 0 -7 5 -9 11 -5 8 4 8 9 0
17 -6 6 -10 25 -10 41 1 20 3 24 6 11 10 -45 15 -51 23 -30 12 29 11 43 -1 25
-8 -12 -10 -12 -7 -1 5 17 34 23 37 7 8 -45 10 -118 2 -101 -10 23 -15 -673
-5 -699 5 -13 23 -16 94 -16 61 0 90 -4 93 -12 3 -7 6 -4 6 7 1 17 3 17 11 5
6 -10 10 193 10 562 0 415 -3 579 -11 584 -8 4 -7 9 2 15 8 4 -46 8 -122 7
-75 0 -140 -3 -145 -7 -21 -15 -25 -77 -8 -110 16 -30 11 -39 -11 -21 -12 10
-15 10 -15 0 0 -8 -2 -11 -5 -9 -2 3 -1 19 4 37 7 24 6 30 -5 25 -7 -3 -12 -8
-11 -12 3 -9 -36 -95 -47 -102 -4 -4 -5 -12 -2 -18 4 -6 2 -11 -3 -11 -6 0
-11 -9 -11 -21 0 -12 4 -17 11 -13 8 4 8 0 0 -15 -7 -12 -9 -26 -6 -31 4 -6 1
-9 -7 -8 -7 2 -12 -2 -11 -8 1 -7 -5 -11 -15 -10 -11 1 -18 -8 -20 -22 -2 -12
-7 -20 -12 -17 -13 8 -43 -76 -31 -88 15 -15 14 -24 -3 -30 -11 -4 -13 -1 -10
11 3 9 -4 0 -15 -22 -11 -21 -18 -43 -14 -49 4 -6 1 -7 -6 -3 -8 6 -11 2 -9
-10 2 -11 -2 -18 -8 -17 -7 1 -21 -20 -33 -47 -24 -56 -25 -64 -10 -54 7 4 10
2 8 -5 -3 -7 -9 -12 -14 -11 -7 1 -24 -26 -29 -50 -1 -3 -7 -15 -14 -27 -7
-13 -10 -35 -6 -50 3 -16 2 -23 -3 -18 -4 6 -18 10 -31 9 -15 -1 -22 4 -21 15
1 9 1 23 0 31 -1 13 -2 13 -12 0 -9 -12 -10 -11 -6 7 3 13 1 25 -3 28 -5 3
-11 -5 -13 -17 -2 -13 -5 5 -6 40 0 34 -5 62 -9 62 -4 0 -7 -16 -7 -35 1 -19
-2 -32 -6 -30 -8 6 -6 61 3 71 7 6 -47 124 -57 124 -2 0 0 -11 7 -24 6 -14 7
-33 3 -43 -5 -10 -9 -21 -9 -25 -1 -4 -9 -17 -19 -29 -13 -14 -22 -18 -29 -11
-15 15 -1 32 20 25 15 -6 16 -5 2 13 -8 10 -10 16 -6 12 12 -10 36 11 36 31 0
9 -8 25 -16 36 -15 19 -16 18 -10 -15 5 -31 5 -32 -4 -11 -13 31 -6 51 17 51
15 0 15 2 3 9 -8 6 -18 7 -24 4 -5 -4 -6 -1 -1 7 5 9 -3 22 -26 40 -25 22 -31
31 -22 41 6 8 9 23 7 34 -3 11 -5 28 -6 37 -1 9 -6 14 -12 11 -5 -4 -7 0 -4 8
3 8 0 26 -8 40 -7 13 -13 20 -14 16 0 -5 5 -17 10 -27 7 -13 6 -21 -2 -26 -7
-4 -10 -4 -6 1 4 4 2 17 -4 29 -7 11 -11 32 -10 46 1 14 -1 19 -4 13 -3 -7
-10 -13 -15 -13 -6 0 -5 8 1 20 9 16 8 18 -5 14 -8 -4 -15 -11 -15 -18 -1 -6
-7 4 -15 23 -17 38 -19 54 -4 29 11 -20 29 -24 29 -7 0 5 -5 7 -10 4 -7 -4 -9
3 -6 19 3 18 1 24 -6 20 -8 -5 -9 -1 -5 10 4 10 1 19 -7 22 -8 3 -17 12 -20
20 -4 9 -2 12 5 8 7 -4 6 2 -1 17 -16 31 -25 39 -16 15 5 -16 4 -17 -9 -6 -12
10 -15 10 -15 -1 0 -11 -2 -11 -10 1 -5 8 -9 22 -9 30 0 10 3 8 9 -5 9 -22 10
-21 14 12 1 12 -1 20 -6 17 -4 -3 -8 0 -8 6 0 7 -43 10 -137 9 l-138 -1 0
-589z m133 574 c-21 -2 -55 -2 -75 0 -21 2 -4 4 37 4 41 0 58 -2 38 -4z m105
0 c-7 -2 -21 -2 -30 0 -10 3 -4 5 12 5 17 0 24 -2 18 -5z m1015 0 c-21 -2 -55
-2 -75 0 -21 2 -4 4 37 4 41 0 58 -2 38 -4z m-223 -155 c5 -4 0 -6 -12 -6 -13
1 -19 7 -16 15 3 8 8 10 12 6 3 -4 10 -11 16 -15z m-765 8 c0 -3 -4 -8 -10
-11 -5 -3 -10 -1 -10 4 0 6 5 11 10 11 6 0 10 -2 10 -4z m130 -185 c0 -5 -7
-12 -16 -15 -22 -9 -24 -8 -24 9 0 8 9 15 20 15 11 0 20 -4 20 -9z m47 -36
c-2 -28 -22 -35 -22 -7 0 14 12 31 22 32 1 0 1 -11 0 -25z m623 -5 c0 -5 -2
-10 -4 -10 -3 0 -8 5 -11 10 -3 6 -1 10 4 10 6 0 11 -4 11 -10z m-180 -60 c0
-5 -2 -10 -4 -10 -3 0 -8 5 -11 10 -3 6 -1 10 4 10 6 0 11 -4 11 -10z m-588
-32 c-7 -7 -12 -8 -12 -2 0 14 12 26 19 19 2 -3 -1 -11 -7 -17z m-106 -3 c-3
-8 -1 -15 4 -15 6 0 10 -5 10 -12 0 -8 -6 -7 -16 4 -9 9 -13 21 -10 27 10 16
19 13 12 -4z m795 -88 c-8 -8 -11 0 -10 29 1 39 1 39 11 11 7 -21 7 -32 -1
-40z m-781 29 c0 -2 -7 -9 -15 -16 -12 -10 -15 -10 -15 4 0 9 7 16 15 16 8 0
15 -2 15 -4z m185 -22 c11 -17 14 -35 10 -52 -6 -24 -8 -25 -17 -9 -5 10 -7
24 -4 32 3 8 0 12 -7 9 -7 -2 -13 6 -13 21 -2 32 9 32 31 -1z m425 -46 c0 -4
-4 -8 -9 -8 -6 0 -12 4 -15 8 -3 5 1 9 9 9 8 0 15 -4 15 -9z m-380 -5 c0 -5
-4 -15 -10 -23 -11 -18 -25 -7 -17 15 6 15 27 21 27 8z m361 -38 c5 3 6 -1 3
-10 -6 -14 -8 -14 -19 2 -7 9 -10 24 -6 33 4 11 7 9 9 -8 2 -12 8 -20 13 -17z
m-604 3 c-3 -8 -6 -5 -6 6 -1 11 2 17 5 13 3 -3 4 -12 1 -19z m760 -30 c-3 -8
-6 -5 -6 6 -1 11 2 17 5 13 3 -3 4 -12 1 -19z m-550 -30 c-3 -8 -6 -5 -6 6 -1
11 2 17 5 13 3 -3 4 -12 1 -19z m407 6 c9 -24 7 -27 -9 -10 -17 17 -19 26 -6
26 5 0 12 -7 15 -16z m46 -5 c0 -6 -4 -7 -10 -4 -5 3 -10 11 -10 16 0 6 5 7
10 4 6 -3 10 -11 10 -16z m-329 -12 c-10 -9 -11 -8 -5 6 3 10 9 15 12 12 3 -3
0 -11 -7 -18z m247 -27 c1 -16 -2 -30 -7 -30 -12 0 -19 21 -13 43 7 27 18 20
20 -13z m-275 -15 c-3 -9 -8 -14 -10 -11 -3 3 -2 9 2 15 9 16 15 13 8 -4z
m-19 -57 c-3 -4 0 -8 5 -8 6 0 11 -5 11 -11 0 -8 -5 -8 -15 1 -9 7 -15 28 -14
49 l1 36 8 -29 c5 -16 7 -33 4 -38z m252 18 c-1 -20 -5 -31 -10 -26 -7 7 -1
60 7 60 2 0 3 -15 3 -34z m-180 -13 c-11 -11 -19 6 -11 24 8 17 8 17 12 0 3
-10 2 -21 -1 -24z m324 1 c0 -9 5 -12 12 -8 7 4 8 3 4 -4 -4 -6 -13 -9 -21 -5
-17 6 -21 33 -5 33 6 0 10 -7 10 -16z m-31 -65 c-15 -15 -20 -17 -16 -6 3 8 2
17 -2 19 -5 2 -4 14 1 27 l9 25 15 -22 c13 -19 13 -23 -7 -43z m-149 11 c6
-11 9 -20 7 -20 -2 0 -12 9 -22 20 -10 11 -13 20 -7 20 6 0 16 -9 22 -20z
m-30 -125 c0 -9 -6 -12 -15 -9 -8 4 -15 10 -15 15 0 5 7 9 15 9 8 0 15 -7 15
-15z m-50 -52 c0 -20 -23 -11 -26 9 -1 11 3 15 12 11 8 -3 14 -12 14 -20z m0
-75 c0 -6 -7 -5 -15 2 -8 7 -15 17 -15 22 0 6 7 5 15 -2 8 -7 15 -17 15 -22z
m-415 -28 c3 -6 -4 -10 -17 -10 -18 0 -20 2 -8 10 19 12 18 12 25 0z m1105 0
c0 -5 -5 -10 -11 -10 -5 0 -7 5 -4 10 3 6 8 10 11 10 2 0 4 -4 4 -10z"/>
<path d="M5300 764 c0 -8 5 -12 10 -9 6 4 8 11 5 16 -9 14 -15 11 -15 -7z"/>
<path d="M10528 1503 c6 -2 18 -2 25 0 6 3 1 5 -13 5 -14 0 -19 -2 -12 -5z"/>
<path d="M10565 1500 c-3 -5 -31 -9 -63 -10 -100 -1 -107 -3 -107 -27 0 -13 3
-23 7 -23 10 0 -3 -102 -15 -117 -5 -7 -21 -13 -34 -13 -18 0 -24 -4 -19 -15
3 -8 2 -14 -2 -14 -4 1 -19 1 -34 0 -28 -1 -28 -1 -27 -76 l1 -75 45 0 c24 0
52 4 62 9 13 7 17 5 18 -7 0 -9 4 -127 8 -262 6 -236 9 -286 15 -302 1 -5 3
-12 4 -18 1 -13 21 -13 21 -1 0 5 4 13 9 18 5 4 6 3 2 -4 -3 -6 1 -13 11 -16
15 -4 16 -5 2 -6 -27 -2 -31 -29 -6 -42 12 -7 25 -17 29 -23 4 -6 15 -12 25
-12 10 -1 27 -5 38 -9 20 -7 20 -6 1 9 -11 9 -15 16 -9 16 7 0 15 -4 18 -10 3
-5 23 -11 43 -11 l37 -2 -35 -7 c-48 -10 -2 -11 67 -1 33 5 57 3 63 -3 7 -7
10 -6 10 2 0 7 5 12 11 12 6 0 9 -7 5 -15 -3 -8 -2 -15 2 -15 4 0 8 24 9 54 1
40 -3 56 -14 60 -8 3 -18 4 -21 2 -4 -2 -13 2 -19 10 -8 8 -9 15 -3 19 6 3 10
2 10 -3 0 -5 11 -9 25 -9 35 0 32 30 -5 44 -16 6 -30 8 -32 3 -2 -4 -21 -10
-43 -13 -28 -5 -34 -4 -20 3 17 7 17 9 3 9 -12 1 -15 6 -11 18 4 11 3 14 -5 9
-7 -4 -12 -2 -12 4 0 6 -4 9 -9 5 -6 -3 -10 88 -11 231 0 130 -3 241 -6 245
-3 5 39 9 93 9 l99 0 3 86 2 87 -25 -7 c-17 -4 -26 -2 -26 5 0 8 -22 10 -76 7
-42 -3 -70 -1 -62 3 7 5 9 9 3 9 -6 0 -9 37 -7 97 2 70 0 94 -7 83 -7 -10 -11
-11 -11 -2 0 14 -16 16 -25 2z m-8 -26 c-3 -3 -12 -4 -19 -1 -8 3 -5 6 6 6 11
1 17 -2 13 -5z m-110 -10 c-3 -3 -12 -4 -19 -1 -8 3 -5 6 6 6 11 1 17 -2 13
-5z m79 -5 c3 -6 15 -9 25 -6 11 3 17 1 13 -4 -3 -5 -11 -9 -17 -9 -16 1 -54
30 -40 30 7 0 15 -5 19 -11z m70 -77 c-11 -10 -14 3 -7 38 l6 35 3 -33 c2 -19
1 -36 -2 -40z m-9 -44 c-3 -8 -6 -5 -6 6 -1 11 2 17 5 13 3 -3 4 -12 1 -19z
m-194 -43 c-3 -9 -8 -14 -10 -11 -3 3 -2 9 2 15 9 16 15 13 8 -4z m-23 1 c0
-3 -4 -8 -10 -11 -5 -3 -10 -1 -10 4 0 6 5 11 10 11 6 0 10 -2 10 -4z m210 -6
c0 -5 -2 -10 -4 -10 -3 0 -8 5 -11 10 -3 6 -1 10 4 10 6 0 11 -4 11 -10z m128
3 c-10 -2 -26 -2 -35 0 -10 3 -2 5 17 5 19 0 27 -2 18 -5z m-388 -100 c-8 -3
-18 -11 -22 -17 -5 -7 -8 -4 -8 7 0 11 7 17 23 16 15 0 17 -2 7 -6z m297 1
c-3 -3 -12 -4 -19 -1 -8 3 -5 6 6 6 11 1 17 -2 13 -5z m-250 -10 c-3 -3 -12
-4 -19 -1 -8 3 -5 6 6 6 11 1 17 -2 13 -5z m223 -4 c8 -5 11 -10 5 -10 -5 0
-17 5 -25 10 -8 5 -10 10 -5 10 6 0 17 -5 25 -10z m-260 -10 c0 -5 -2 -10 -4
-10 -3 0 -8 5 -11 10 -3 6 -1 10 4 10 6 0 11 -4 11 -10z m60 -10 c-20 -13 -33
-13 -25 0 3 6 14 10 23 10 15 0 15 -2 2 -10z m-70 -16 c0 -2 -7 -4 -15 -4 -8
0 -15 4 -15 10 0 5 7 7 15 4 8 -4 15 -8 15 -10z m310 7 c-8 -5 -26 -12 -40
-15 l-25 -7 25 15 c14 9 32 15 40 15 13 0 13 -1 0 -8z m120 -3 c0 -4 -23 -8
-51 -8 -31 0 -48 4 -44 10 7 12 95 10 95 -2z m-150 -45 c0 -5 -5 -15 -10 -23
-8 -12 -10 -11 -10 8 0 12 5 22 10 22 6 0 10 -3 10 -7z m-3 -295 c-1 -46 -3
-11 -3 77 0 88 2 125 3 83 2 -42 2 -114 0 -160z m-18 -106 c1 -7 -3 -10 -9 -7
-5 3 -10 21 -9 38 1 31 1 31 9 7 4 -14 8 -31 9 -38z m19 -57 c-3 -3 -9 2 -12
12 -6 14 -5 15 5 6 7 -7 10 -15 7 -18z m-154 -21 c9 -24 7 -28 -9 -14 -17 14
-20 30 -6 30 5 0 12 -7 15 -16z m116 0 c0 -8 -4 -12 -10 -9 -5 3 -10 10 -10
16 0 5 5 9 10 9 6 0 10 -7 10 -16z m-65 -44 c-14 -16 -20 -17 -27 -8 -10 17
-10 31 0 24 4 -2 14 -1 22 4 22 14 25 2 5 -20z m-55 -6 c0 -8 -4 -12 -10 -9
-5 3 -10 10 -10 16 0 5 5 9 10 9 6 0 10 -7 10 -16z m260 2 c0 -2 -13 -6 -29
-8 -17 -2 -28 -1 -25 4 5 8 54 12 54 4z m-220 -66 c0 -5 -7 -7 -15 -4 -8 4
-15 8 -15 10 0 2 7 4 15 4 8 0 15 -4 15 -10z m274 -31 c-6 -11 -24 -2 -24 11
0 5 7 7 15 4 8 -4 12 -10 9 -15z"/>
<path d="M5406 1351 c3 -13 2 -21 -3 -18 -5 3 -10 -4 -10 -15 -2 -21 -2 -21
13 0 11 17 12 26 4 39 -9 15 -10 14 -4 -6z"/>
<path d="M630 1330 c0 -6 -7 -10 -16 -10 -8 0 -12 -4 -9 -10 8 -13 -21 -13
-46 0 -13 7 -19 7 -19 0 0 -5 -10 -10 -22 -10 -13 0 -27 -4 -33 -8 -14 -10
-17 -32 -5 -32 15 0 12 -17 -5 -24 -20 -7 -46 4 -39 16 4 6 10 5 15 -3 4 -7
12 -10 16 -5 4 5 2 11 -5 13 -6 3 -9 9 -6 15 4 5 -6 2 -21 -8 l-27 -18 24 -17
23 -18 -23 6 c-12 3 -25 10 -28 15 -10 15 -104 -89 -98 -107 4 -8 -1 -17 -9
-21 -12 -4 -13 -12 -6 -37 8 -30 7 -31 -7 -12 -15 19 -15 19 -9 -8 5 -16 2
-33 -5 -42 -7 -8 -10 -26 -8 -40 3 -14 1 -28 -5 -32 -5 -3 -7 -1 -3 5 3 5 1
12 -5 14 -8 3 -6 16 5 42 9 22 14 41 11 44 -8 9 -28 -52 -31 -99 -2 -26 -4
-50 -5 -55 -1 -5 -1 -31 0 -57 1 -32 5 -46 12 -41 8 4 9 0 4 -15 -3 -11 -3
-26 2 -33 4 -7 8 -18 9 -24 4 -28 54 -121 74 -139 20 -17 23 -18 17 -3 -4 10
-3 18 2 18 11 0 21 -38 12 -43 -3 -2 -1 -3 6 -1 6 1 13 -7 16 -18 4 -13 10
-17 18 -12 7 4 10 3 6 -3 -4 -6 5 -19 19 -28 15 -9 23 -12 20 -6 -4 6 -2 11 4
11 7 0 10 6 7 14 -3 8 0 17 8 20 9 3 12 0 8 -9 -3 -8 2 -18 11 -21 9 -3 13
-11 10 -16 -4 -6 -9 -6 -14 2 -5 8 -10 9 -14 2 -8 -13 30 -36 44 -27 5 3 11 1
15 -5 4 -7 12 -7 25 0 14 8 19 5 23 -11 5 -18 11 -20 38 -14 23 5 30 4 24 -4
-5 -9 7 -11 44 -10 28 2 47 7 44 12 -3 5 7 6 26 2 35 -8 61 3 40 16 -11 7 -11
9 1 9 13 0 13 1 0 11 -13 9 -13 10 0 6 8 -2 14 -10 12 -16 -4 -18 21 -23 52
-11 17 6 24 14 20 22 -4 7 -3 8 5 4 6 -4 18 -2 26 4 8 6 20 8 26 4 7 -4 9 -3
6 3 -4 6 2 13 13 16 11 3 19 11 18 19 -2 8 4 12 15 10 24 -4 21 7 -5 18 -13 5
-16 9 -8 9 8 0 21 -3 29 -8 9 -6 23 -1 42 17 16 14 29 28 29 31 0 3 -15 18
-34 33 -32 25 -36 26 -50 12 -9 -8 -16 -11 -16 -5 0 5 5 13 10 16 15 9 2 25
-15 19 -8 -4 -12 -11 -8 -17 3 -6 1 -7 -6 -3 -9 6 -9 11 -1 21 15 18 -13 39
-42 29 -21 -6 -22 -6 -8 12 14 17 14 18 -2 6 -9 -8 -14 -20 -11 -28 3 -9 -2
-14 -13 -15 -11 0 -14 -3 -7 -5 6 -3 24 2 38 12 16 10 30 13 35 8 6 -6 1 -15
-11 -22 -15 -10 -19 -10 -14 -1 5 7 3 10 -6 7 -8 -3 -13 -10 -12 -15 2 -11
-27 -10 -46 2 -9 5 -12 4 -8 -2 6 -9 -26 -26 -44 -24 -4 0 -6 -7 -5 -16 0 -9
-6 -18 -14 -20 -13 -4 -13 -3 0 6 12 9 7 11 -20 9 -19 -2 -41 -9 -49 -16 -9
-9 -26 -12 -45 -8 l-31 6 25 -15 25 -14 -27 1 c-15 1 -24 6 -22 10 3 4 -3 8
-13 8 -12 1 -8 5 12 15 l30 15 -35 -6 c-19 -4 -37 -6 -40 -6 -22 -1 -29 4 -24
17 4 10 0 15 -11 15 -9 0 -13 5 -10 10 3 6 2 10 -4 10 -5 0 -17 3 -27 7 -10 4
-15 2 -11 -4 3 -5 0 -10 -8 -10 -12 0 -13 7 -3 47 1 8 -4 14 -12 15 -10 0 -14
8 -12 23 2 12 -2 22 -8 22 -6 0 -9 4 -5 9 3 5 1 12 -5 16 -5 3 -10 11 -10 16
0 6 4 8 9 5 5 -4 11 -2 13 4 2 6 127 10 336 10 l332 1 0 63 c0 45 -4 67 -15
76 -10 9 -12 16 -5 20 7 4 5 21 -6 53 -15 44 -16 45 -34 29 -10 -9 -20 -28
-23 -42 -3 -14 -4 -1 -2 28 2 30 7 57 11 60 4 4 4 -6 0 -23 -7 -28 -6 -29 7
-10 15 20 12 45 -5 45 -6 0 -8 6 -5 13 8 20 -37 72 -65 74 -63 6 -89 10 -94
16 -8 8 60 2 74 -7 6 -3 14 -2 17 4 4 6 1 9 -6 8 -7 -2 -13 4 -14 12 0 8 -8
14 -18 14 -9 -1 -15 2 -12 6 3 5 1 11 -5 15 -5 3 -10 2 -10 -4 0 -6 -8 -7 -17
-4 -16 6 -16 5 -4 -10 9 -11 10 -17 2 -17 -6 0 -11 5 -11 11 0 6 -7 8 -17 5
-15 -6 -14 -4 2 14 25 28 9 45 -30 30 -15 -6 -30 -9 -32 -6 -3 2 5 7 18 11 17
6 19 9 8 16 -8 5 -18 9 -24 9 -5 0 -4 -4 3 -9 10 -6 7 -10 -13 -15 -16 -4 -32
-3 -38 3 -7 7 -3 8 12 4 12 -3 21 -1 21 5 0 14 -62 26 -97 19 -15 -3 -37 -1
-50 4 -14 5 -23 5 -23 -1z m30 -20 c0 -5 -8 -10 -17 -10 -15 0 -16 2 -3 10 19
12 20 12 20 0z m72 3 c-10 -4 -9 -8 3 -17 15 -10 14 -12 -4 -12 -11 0 -17 4
-15 8 3 4 -1 8 -8 8 -9 0 -9 3 2 10 8 5 20 9 25 9 6 0 4 -3 -3 -6z m-162 -17
c0 -2 -7 -6 -15 -10 -8 -3 -15 -1 -15 4 0 6 7 10 15 10 8 0 15 -2 15 -4z m47
-12 c-3 -3 -12 -4 -19 -1 -8 3 -5 6 6 6 11 1 17 -2 13 -5z m130 -30 c-3 -3
-12 -4 -19 -1 -8 3 -5 6 6 6 11 1 17 -2 13 -5z m-121 -23 c-7 -11 -56 -21 -56
-10 0 4 12 10 28 12 15 2 28 5 30 6 2 0 1 -3 -2 -8z m-203 -34 c-8 -13 -26 -3
-29 16 -2 13 1 14 16 4 10 -6 16 -15 13 -20z m245 24 c11 -7 11 -9 -1 -14 -16
-6 -27 0 -27 15 0 10 11 10 28 -1z m137 -11 c-3 -5 -14 -10 -23 -9 -14 0 -13
2 3 9 27 11 27 11 20 0z m-175 -20 c8 -5 11 -10 5 -10 -5 0 -17 5 -25 10 -8 5
-10 10 -5 10 6 0 17 -5 25 -10z m240 -4 c0 -9 -7 -12 -20 -9 -11 3 -20 9 -20
14 0 5 9 9 20 9 11 0 20 -6 20 -14z m-517 -21 c-10 -13 -22 -25 -26 -25 -5 0
-5 -5 -1 -12 4 -7 3 -8 -5 -4 -8 5 -5 16 11 36 28 35 46 40 21 5z m71 -37 c7
-5 7 -8 -3 -8 -8 0 -11 -7 -8 -20 7 -28 -2 -25 -13 5 -7 18 -14 23 -27 18 -17
-7 -17 -6 0 11 11 11 16 26 12 40 -4 13 0 10 11 -9 9 -16 22 -33 28 -37z m586
52 c0 -5 -2 -10 -4 -10 -3 0 -8 5 -11 10 -3 6 -1 10 4 10 6 0 11 -4 11 -10z
m-445 -18 c3 -8 3 -17 0 -20 -3 -3 -5 0 -5 6 0 7 -7 12 -15 12 -8 0 -15 4 -15
8 0 15 29 9 35 -6z m102 6 c-22 -4 -53 -4 -70 0 -25 7 -17 8 38 8 61 1 65 0
32 -8z m126 5 c-7 -2 -21 -2 -30 0 -10 3 -4 5 12 5 17 0 24 -2 18 -5z m213
-24 c18 -19 22 -28 11 -24 -12 5 -17 2 -18 -11 0 -15 -2 -15 -6 -4 -3 8 -11
19 -17 23 -7 6 -4 7 7 3 21 -7 22 2 0 26 -27 30 -9 20 23 -13z m34 -4 c14 -19
14 -19 -2 -6 -10 7 -18 18 -18 24 0 6 1 8 3 6 1 -2 9 -13 17 -24z m-274 -10
c19 -8 37 -9 45 -4 17 11 49 12 48 2 -4 -22 2 -33 14 -27 9 5 9 4 0 -6 -9 -10
-15 -10 -28 4 -29 28 -35 17 -7 -12 15 -15 33 -37 40 -47 7 -11 11 -15 8 -10
-3 6 4 16 15 23 10 7 19 8 19 3 0 -6 -5 -13 -10 -16 -8 -5 -7 -12 1 -22 10
-12 10 -16 -2 -24 -9 -6 -10 -9 -2 -9 7 0 10 -7 7 -15 -5 -13 -41 -15 -235
-15 l-229 0 -17 35 c-9 19 -21 35 -25 35 -5 0 -3 6 4 14 11 12 16 12 32 -2 17
-16 20 -15 52 23 29 35 31 41 16 47 -11 5 -6 6 13 4 17 -2 37 2 45 9 38 33
129 37 196 10z m24 15 c24 -15 7 -19 -20 -5 -15 8 -19 14 -10 14 8 1 22 -3 30
-9z m150 -6 c0 -2 -7 -4 -15 -4 -8 0 -15 4 -15 10 0 5 7 7 15 4 8 -4 15 -8 15
-10z m-445 -44 c3 -5 1 -10 -4 -10 -6 0 -11 5 -11 10 0 6 2 10 4 10 3 0 8 -4
11 -10z m-177 -26 c0 -17 -3 -22 -8 -13 -5 6 -6 18 -3 26 8 19 11 16 11 -13z
m697 -4 c3 -5 -1 -10 -9 -10 -9 0 -16 5 -16 10 0 6 4 10 9 10 6 0 13 -4 16
-10z m-655 -41 c0 -11 -4 -17 -10 -14 -5 3 -10 13 -10 21 0 8 5 14 10 14 6 0
10 -9 10 -21z m-43 -21 c-3 -8 -6 -5 -6 6 -1 11 2 17 5 13 3 -3 4 -12 1 -19z
m636 2 c-3 -11 -7 -20 -9 -20 -2 0 -4 9 -4 20 0 11 4 20 9 20 5 0 7 -9 4 -20z
m-542 -37 c-8 -15 -10 -15 -11 -2 0 17 10 32 18 25 2 -3 -1 -13 -7 -23z m669
21 c0 -7 -27 -34 -34 -34 -4 0 -1 9 6 20 12 19 28 27 28 14z m-799 -27 c-10
-9 -11 -8 -5 6 3 10 9 15 12 12 3 -3 0 -11 -7 -18z m-21 -147 c0 -5 -5 -10
-11 -10 -5 0 -7 5 -4 10 3 6 8 10 11 10 2 0 4 -4 4 -10z m162 -27 c-6 -2 -10
-9 -6 -14 3 -5 0 -9 -5 -9 -12 0 -14 13 -4 23 3 4 11 7 17 6 6 0 5 -3 -2 -6z
m-65 -35 c-3 -7 -5 -2 -5 12 0 14 2 19 5 13 2 -7 2 -19 0 -25z m63 -8 c0 -5
-5 -10 -11 -10 -5 0 -7 5 -4 10 3 6 8 10 11 10 2 0 4 -4 4 -10z m-130 -41 c0
-15 -18 -19 -23 -6 -3 8 1 14 9 14 8 0 14 -4 14 -8z m20 -8 c-5 -11 -7 -28 -3
-38 5 -14 3 -16 -7 -6 -11 10 -11 18 -2 38 6 14 14 25 17 25 3 0 1 -9 -5 -19z
m56 -85 c16 -14 24 -30 21 -42 -4 -17 -5 -17 -6 2 -1 27 -49 54 -60 35 -7 -10
-9 -9 -14 3 -4 9 1 16 11 19 9 3 18 5 20 6 2 0 14 -10 28 -23z m29 13 c11 -16
1 -19 -13 -3 -7 8 -8 14 -3 14 5 0 13 -5 16 -11z m645 -27 c0 -2 -9 0 -20 3
-11 3 -20 2 -20 -4 0 -5 8 -12 18 -14 15 -4 15 -5 0 -6 -22 -1 -28 10 -22 36
6 20 7 20 25 5 10 -9 19 -18 19 -20z m-67 -17 c4 -8 3 -16 -1 -19 -4 -3 -9 4
-9 15 -2 23 3 25 10 4z m-176 -12 c-9 -9 -63 -12 -76 -4 -5 4 11 8 36 9 25 1
43 -1 40 -5z m-345 -18 c7 -7 -14 -55 -24 -55 -11 0 -10 12 2 30 7 11 5 17 -8
22 -14 6 -14 7 4 7 11 1 23 -1 26 -4z m142 -27 c-3 -5 -18 -7 -34 -6 -16 1
-26 6 -24 10 3 5 18 7 34 6 16 -1 26 -6 24 -10z m23 -64 c-3 -3 -12 -4 -19 -1
-8 3 -5 6 6 6 11 1 17 -2 13 -5z m133 -10 c0 -2 -9 -4 -20 -4 -11 0 -20 4 -20
9 0 5 9 7 20 4 11 -3 20 -7 20 -9z m-95 -4 c-11 -5 -29 -8 -40 -8 -16 0 -15 2
5 8 34 11 60 11 35 0z m195 0 c-8 -5 -19 -10 -25 -10 -5 0 -3 5 5 10 8 5 20
10 25 10 6 0 3 -5 -5 -10z"/>
<path d="M441 1003 c7 -10 14 -20 16 -22 1 -2 1 6 0 18 -1 11 -8 21 -15 21
-12 0 -12 -3 -1 -17z"/>
<path d="M2478 1323 c-16 -2 -28 -8 -28 -12 0 -5 -13 -11 -30 -14 -27 -6 -43
-27 -20 -27 14 0 1 -28 -17 -34 -12 -5 -13 -4 -5 7 7 8 9 17 5 20 -14 14 -41
6 -56 -16 -15 -23 -14 -24 6 -21 15 3 30 -6 46 -27 13 -16 20 -33 16 -37 -3
-4 -11 1 -16 11 -6 9 -17 17 -26 17 -9 0 -13 6 -9 15 3 9 0 15 -10 15 -8 0
-12 -5 -9 -11 4 -6 -2 -5 -13 2 -17 11 -19 16 -10 29 7 8 -8 -5 -33 -30 -52
-53 -74 -92 -65 -115 10 -27 -12 -57 -37 -49 -12 3 -19 3 -15 -1 4 -5 4 -13
-1 -19 -4 -6 -11 -24 -14 -41 l-6 -30 14 30 c12 25 14 26 15 9 0 -12 -9 -31
-20 -44 -21 -24 -25 -42 -13 -54 10 -10 11 -46 1 -46 -4 0 -8 -9 -8 -21 0 -11
4 -17 10 -14 6 4 8 -7 4 -27 l-5 -33 15 25 c18 30 20 24 5 -18 -8 -23 -8 -36
1 -49 11 -17 11 -17 6 0 -3 11 -2 15 4 12 6 -3 10 -1 10 5 0 7 7 4 16 -5 9 -9
13 -19 10 -23 -4 -3 -11 -1 -15 7 -6 9 -10 7 -14 -8 -3 -11 -2 -20 2 -19 17 2
31 -3 31 -12 0 -5 -8 -7 -17 -4 -17 5 -16 4 0 -9 10 -8 18 -18 18 -21 -1 -3 0
-8 0 -11 1 -3 2 -9 3 -14 1 -9 51 -58 64 -63 4 -2 6 -6 5 -9 -1 -4 7 -15 19
-25 12 -11 18 -13 14 -6 -14 23 5 12 30 -18 25 -29 26 -29 56 -14 16 8 32 13
36 10 3 -3 1 -6 -4 -6 -6 0 -18 -6 -28 -13 -16 -12 -16 -14 -2 -14 9 0 16 4
16 9 0 4 5 8 11 8 6 0 8 -7 5 -16 -3 -8 -2 -13 3 -10 5 3 22 -1 37 -9 19 -10
43 -14 69 -10 29 4 35 2 20 -4 -16 -8 -9 -10 28 -10 32 -1 54 4 65 15 11 12
27 15 56 11 26 -4 35 -2 25 4 -7 5 -22 9 -31 9 -9 0 -19 4 -22 9 -3 4 7 6 22
4 22 -4 24 -2 12 7 -13 10 -13 11 0 7 8 -2 14 -10 12 -17 -2 -7 5 -9 18 -5 12
4 20 2 20 -5 0 -6 5 -8 10 -5 6 4 8 10 5 14 -2 5 7 7 20 5 14 -1 25 3 25 9 0
20 14 34 40 41 24 6 24 6 3 -5 -12 -6 -24 -18 -27 -25 -3 -9 7 -5 24 8 17 12
30 28 30 35 0 7 5 13 11 13 5 0 7 -6 3 -12 -3 -7 10 4 30 25 20 21 36 42 36
47 0 5 12 22 26 39 15 18 23 38 20 47 -3 8 1 17 9 20 8 4 12 11 9 16 -4 6 -1
13 5 17 15 10 21 84 11 144 -4 27 -3 47 2 47 12 0 -1 64 -13 68 -5 2 -9 12 -9
23 0 11 -9 29 -20 41 -22 24 -27 43 -7 32 6 -4 3 2 -7 14 -11 12 -20 22 -21
22 -6 0 9 -57 18 -68 5 -7 7 -15 4 -19 -4 -3 -9 2 -13 11 -3 9 -9 14 -13 12
-4 -3 -6 8 -5 25 1 16 -3 29 -9 29 -6 0 -2 7 9 15 19 14 19 14 -2 15 -11 0
-25 5 -32 12 -9 9 -12 8 -12 -5 0 -9 5 -17 12 -17 6 0 8 -3 5 -6 -4 -4 -13 -1
-21 5 -17 14 -40 75 -26 66 6 -4 10 -2 10 3 0 6 -7 13 -16 16 -8 3 -13 10 -10
15 10 16 -23 20 -50 6 -33 -17 -50 -10 -29 11 22 22 19 27 -25 47 -44 19 -64
22 -40 7 13 -8 12 -10 -2 -10 -10 0 -18 4 -18 9 0 5 -9 7 -20 4 -11 -3 -20 -1
-20 4 0 14 -62 14 -78 1 -11 -9 -11 -13 0 -19 8 -6 0 -9 -22 -9 -27 0 -32 3
-20 11 11 8 5 9 -25 5 -22 -2 -32 -2 -22 0 16 5 25 26 10 23 -5 -1 -20 -4 -35
-6z m170 -21 c2 -7 -2 -10 -12 -6 -9 3 -16 11 -16 16 0 13 23 5 28 -10z m49
-8 c-3 -3 -12 -4 -19 -1 -8 3 -5 6 6 6 11 1 17 -2 13 -5z m-220 -10 c-3 -3
-12 -4 -19 -1 -8 3 -5 6 6 6 11 1 17 -2 13 -5z m-117 -34 c0 -5 -4 -10 -10
-10 -5 0 -10 5 -10 10 0 6 5 10 10 10 6 0 10 -4 10 -10z m510 -41 c0 -14 -17
-10 -23 5 -4 10 -1 13 9 9 7 -3 14 -9 14 -14z m-581 -26 c-8 -10 -21 -25 -29
-33 -9 -8 -21 -26 -28 -40 l-12 -25 7 25 c4 14 7 32 7 41 0 9 5 15 11 13 6 -3
20 4 30 16 22 25 33 27 14 3z m338 10 c-15 -4 -16 -7 -5 -20 11 -14 11 -15 -2
-11 -8 2 -16 12 -18 21 -3 12 3 17 20 16 18 -1 19 -2 5 -6z m168 -8 c-21 -17
-37 -15 -43 3 -2 8 8 12 30 12 31 -1 32 -1 13 -15z m-278 -1 c-3 -3 -12 -4
-19 -1 -8 3 -5 6 6 6 11 1 17 -2 13 -5z m194 -1 c-11 -4 -11 -7 0 -14 7 -4 10
-12 5 -16 -5 -4 -11 -2 -13 5 -3 6 -19 13 -36 13 l-32 2 35 7 c43 9 60 10 41
3z m-181 -28 c0 -8 -5 -15 -11 -15 -5 0 -8 4 -4 9 3 5 -5 12 -17 14 -20 4 -19
4 5 6 18 1 27 -4 27 -14z m60 -10 c14 0 46 -7 72 -16 26 -9 49 -14 52 -11 4 3
6 1 6 -5 0 -5 12 -15 27 -22 21 -10 28 -9 36 1 7 10 8 9 4 -3 -3 -9 0 -23 6
-30 10 -10 9 -11 -3 -4 -10 7 -10 4 2 -6 9 -9 15 -19 12 -21 -2 -3 2 -11 11
-18 8 -7 15 -19 15 -27 0 -12 3 -13 14 -4 12 10 14 7 10 -21 -3 -18 -7 -43 -9
-55 -3 -12 -1 -25 5 -28 5 -3 7 0 4 8 -3 8 -1 18 4 21 5 3 7 -10 5 -32 -2 -20
-5 -44 -5 -51 -1 -8 -16 -41 -34 -73 -18 -32 -31 -65 -28 -72 6 -15 -10 -29
-41 -34 -19 -3 -19 -2 0 12 11 8 23 12 27 10 5 -3 8 0 8 5 0 18 -15 13 -44
-14 -14 -13 -29 -25 -31 -25 -3 0 -15 -6 -28 -13 -24 -15 -129 -17 -162 -3
l-20 9 20 -16 c19 -16 19 -16 -5 -10 -14 3 -33 14 -43 24 -10 11 -22 19 -28
19 -6 0 -7 5 -4 10 3 6 -1 10 -9 10 -9 0 -16 3 -16 8 0 4 -18 27 -40 51 -23
26 -35 48 -30 51 6 4 2 14 -10 25 -11 10 -20 25 -19 34 0 10 3 8 9 -6 13 -33
16 -28 12 18 -3 30 -7 38 -14 28 -7 -10 -8 -9 -3 6 3 10 9 39 12 63 3 24 12
46 19 49 8 3 11 9 8 14 -3 5 -1 9 5 9 7 0 7 7 0 23 -9 21 -6 28 21 55 34 35
41 38 38 20 -4 -17 -24 -38 -37 -38 -6 0 -11 -10 -11 -21 0 -19 3 -18 30 12
16 19 30 40 30 48 0 11 3 11 15 1 10 -8 15 -9 15 -2 0 6 16 14 36 18 25 5 38
13 42 27 4 16 7 17 11 6 3 -7 17 -14 31 -14z m96 -1 c19 -15 19 -15 -1 -6 -11
5 -27 12 -35 15 -13 5 -13 6 1 6 8 1 24 -6 35 -15z m189 6 c-3 -5 -13 -10 -21
-10 -8 0 -14 -5 -14 -12 0 -6 -3 -8 -7 -4 -5 4 1 14 11 22 23 16 40 19 31 4z
m-120 -49 c-6 -5 -25 10 -25 20 0 5 6 4 14 -3 8 -7 12 -15 11 -17z m162 -13
c-3 -8 -6 -5 -6 6 -1 11 2 17 5 13 3 -3 4 -12 1 -19z m-580 -10 c-3 -8 -6 -5
-6 6 -1 11 2 17 5 13 3 -3 4 -12 1 -19z m4 -47 c16 27 17 3 0 -29 l-17 -33 -1
38 c0 21 2 32 4 24 5 -11 7 -11 14 0z m531 -23 c-9 -9 -12 -7 -12 12 0 19 3
21 12 12 9 -9 9 -15 0 -24z m-722 -88 c0 -5 -5 -10 -11 -10 -5 0 -7 5 -4 10 3
6 8 10 11 10 2 0 4 -4 4 -10z m70 -40 c0 -11 -4 -20 -10 -20 -5 0 -10 9 -10
20 0 11 5 20 10 20 6 0 10 -9 10 -20z m657 -72 c-3 -7 -5 -2 -5 12 0 14 2 19
5 13 2 -7 2 -19 0 -25z m-587 -18 c0 -5 -5 -10 -11 -10 -5 0 -7 5 -4 10 3 6 8
10 11 10 2 0 4 -4 4 -10z m630 -17 c0 -20 -3 -24 -11 -16 -7 7 -9 19 -6 27 10
24 17 19 17 -11z m60 12 c0 -8 -4 -15 -10 -15 -5 0 -10 7 -10 15 0 8 5 15 10
15 6 0 10 -7 10 -15z m-106 -33 c2 -17 1 -31 -3 -30 -21 2 -31 -3 -25 -14 6
-9 3 -9 -9 1 -13 10 -14 17 -5 35 16 31 22 34 14 9 -5 -14 -3 -23 3 -23 6 0
11 14 11 32 0 39 9 33 14 -10z m-637 -9 c-3 -10 -5 -4 -5 12 0 17 2 24 5 18 2
-7 2 -21 0 -30z m30 -5 c-3 -7 -5 -2 -5 12 0 14 2 19 5 13 2 -7 2 -19 0 -25z
m76 -25 c-3 -8 5 -26 18 -40 15 -16 18 -24 9 -21 -8 2 -22 18 -30 35 l-16 30
-12 -26 c-7 -14 -12 -33 -12 -42 0 -18 -17 -35 -26 -26 -6 5 21 74 36 92 14
16 39 15 33 -2z m37 -26 c0 -5 -4 -5 -10 -2 -5 3 -10 14 -10 23 0 15 2 15 10
2 5 -8 10 -19 10 -23z m614 17 c18 -18 21 -34 6 -34 -5 0 -10 7 -10 15 0 8 -4
15 -10 15 -6 0 -5 -10 2 -25 14 -31 -4 -55 -41 -54 -24 0 -25 1 -5 9 34 13 42
70 10 70 -6 0 -4 5 4 10 20 13 26 12 44 -6z m-754 -24 c0 -5 -4 -10 -10 -10
-5 0 -10 5 -10 10 0 6 5 10 10 10 6 0 10 -4 10 -10z m-9 -29 c6 10 8 8 7 -7
-1 -13 -8 -21 -18 -19 -8 1 -14 5 -12 8 1 4 2 13 3 20 0 8 2 8 6 -2 5 -11 7
-11 14 0z m188 -14 c0 -9 -2 -8 -6 1 -2 6 -10 9 -15 6 -7 -4 -8 -2 -4 5 9 13
26 5 25 -12z m411 13 c0 -5 -4 -10 -10 -10 -5 0 -10 5 -10 10 0 6 5 10 10 10
6 0 10 -4 10 -10z m70 -7 c0 -14 -26 -18 -34 -4 -7 11 0 18 19 18 8 0 15 -6
15 -14z m-670 -43 c0 -5 -2 -10 -4 -10 -3 0 -8 5 -11 10 -3 6 -1 10 4 10 6 0
11 -4 11 -10z m113 -6 c19 -7 21 -13 9 -32 -6 -9 -14 -6 -30 13 -25 28 -28 40
-9 31 6 -3 20 -9 30 -12z m161 -3 c19 -7 19 -8 -2 -13 -12 -4 -20 -2 -17 2 3
5 -1 11 -7 13 -7 3 -8 5 -3 6 6 0 19 -4 29 -8z m209 2 c3 -5 -14 -9 -37 -9
-33 -2 -36 0 -16 6 34 11 48 11 53 3z m222 -6 c-10 -8 -15 -19 -11 -25 3 -6 2
-13 -2 -16 -8 -5 -9 13 -3 47 0 4 9 7 18 7 15 0 15 -1 -2 -13z m-225 -27 c8
-16 8 -20 -4 -20 -9 0 -14 8 -13 20 1 11 2 20 4 20 1 0 7 -9 13 -20z m184 4
c3 -8 2 -12 -4 -9 -6 3 -10 10 -10 16 0 14 7 11 14 -7z m-577 -18 c0 -8 -6
-12 -15 -8 -11 4 -13 1 -7 -8 6 -9 4 -11 -5 -5 -10 6 -9 11 5 22 23 16 22 16
22 -1z m278 4 c-3 -5 -13 -10 -21 -10 -8 0 -12 5 -9 10 3 6 13 10 21 10 8 0
12 -4 9 -10z m-205 -10 c0 -5 -4 -10 -10 -10 -5 0 -10 5 -10 10 0 6 5 10 10
10 6 0 10 -4 10 -10z m461 -8 c-7 -2 -18 1 -23 6 -8 8 -4 9 13 5 13 -4 18 -8
10 -11z m-331 -2 c0 -5 -13 -10 -30 -10 -16 0 -30 5 -30 10 0 6 14 10 30 10
17 0 30 -4 30 -10z m-140 -39 c0 -6 -4 -13 -10 -16 -5 -3 -10 1 -10 9 0 9 5
16 10 16 6 0 10 -4 10 -9z m93 -31 c3 -11 4 -20 3 -20 -1 0 -9 9 -19 20 -13
15 -14 20 -3 20 7 0 16 -9 19 -20z m34 4 c-3 -3 -12 -4 -19 -1 -8 3 -5 6 6 6
11 1 17 -2 13 -5z m73 -4 c0 -5 -10 -10 -22 -10 -13 0 -34 -2 -48 -5 -14 -3
-7 2 15 9 50 18 55 18 55 6z"/>
<path d="M2548 1323 c6 -2 18 -2 25 0 6 3 1 5 -13 5 -14 0 -19 -2 -12 -5z"/>
<path d="M3629 1321 c20 -5 21 -8 9 -19 -20 -16 -86 -24 -108 -12 -22 12 -54
-19 -44 -44 4 -11 2 -15 -8 -11 -8 3 -27 -6 -42 -20 -19 -18 -32 -23 -39 -16
-5 5 -17 7 -26 3 -14 -5 -14 -3 2 12 9 9 18 22 18 27 2 16 4 69 2 69 -14 0
-31 -15 -26 -23 3 -6 1 -7 -6 -3 -6 4 -9 12 -5 17 3 6 -25 9 -78 7 l-83 -3 0
-420 c0 -254 -4 -423 -10 -427 -5 -4 41 -8 103 -10 87 -2 112 0 112 10 0 7 -4
10 -10 7 -5 -3 -10 -1 -10 4 0 6 5 11 11 11 7 0 10 79 8 245 -1 191 -4 243
-14 235 -13 -11 -25 -4 -25 14 0 6 4 5 9 -2 6 -10 10 -7 15 13 4 15 5 30 1 33
-3 3 -5 -2 -5 -11 0 -10 -4 -17 -8 -17 -10 0 0 79 11 97 4 6 3 14 -3 18 -6 4
-8 10 -5 15 4 6 14 5 25 -2 14 -9 22 -9 34 1 13 11 16 11 16 0 0 -7 7 -3 17
10 13 19 14 28 4 42 -15 26 -1 24 43 -6 24 -16 42 -22 56 -17 29 11 111 2 103
-11 -3 -5 -1 -7 4 -4 6 4 16 0 23 -8 19 -23 32 -18 19 8 -9 17 -9 19 0 11 7
-6 14 -20 15 -30 2 -10 9 -20 16 -22 7 -3 10 0 6 7 -4 6 -2 11 4 11 6 0 10
-10 9 -22 -3 -32 11 -63 21 -48 9 14 30 5 30 -13 0 -8 -3 -8 -9 1 -11 18 -21
-7 -21 -51 0 -25 2 -29 11 -17 8 11 9 2 5 -35 -3 -27 -3 -45 2 -38 4 6 6 -26
5 -70 -10 -344 -9 -374 12 -372 11 1 55 3 97 4 43 0 77 4 76 9 0 4 2 14 6 23
10 23 0 543 -11 599 -5 25 -14 44 -20 43 -5 -1 -10 8 -10 20 0 31 -13 58 -26
50 -6 -4 -8 0 -4 10 4 11 -7 27 -36 51 -23 19 -44 30 -46 25 -2 -6 -10 -1 -18
10 -14 21 -40 31 -28 11 3 -5 1 -10 -4 -10 -6 0 -11 7 -11 15 0 9 -6 12 -15 9
-8 -4 -21 -2 -28 3 -8 7 -22 6 -42 -3 -16 -7 -24 -13 -16 -14 8 0 12 -3 8 -6
-3 -3 -11 -3 -18 2 -9 5 -8 10 5 19 14 10 9 12 -31 13 -33 0 -40 -2 -24 -7z
m-239 -61 c0 -5 -2 -10 -4 -10 -3 0 -8 5 -11 10 -3 6 -1 10 4 10 6 0 11 -4 11
-10z m124 -34 c2 -14 0 -23 -4 -21 -4 3 -7 16 -7 30 0 32 8 26 11 -9z m351 23
c-8 -12 23 -38 45 -39 13 0 13 1 0 11 -10 7 -11 9 -2 7 25 -6 7 -23 -24 -23
-23 0 -30 4 -26 14 3 9 1 12 -6 7 -14 -8 -15 -5 -6 18 3 9 10 16 16 16 5 0 6
-5 3 -11z m-405 -44 c-7 -9 -15 -13 -19 -10 -3 3 1 10 9 15 21 14 24 12 10 -5z
m85 -15 c-3 -5 -12 -10 -18 -10 -7 0 -6 4 3 10 19 12 23 12 15 0z m69 -11 c5
-4 -3 -6 -17 -6 -15 1 -27 5 -27 9 0 9 24 17 30 9 3 -3 9 -9 14 -12z m66 -9
c12 -8 11 -10 -7 -10 -12 0 -25 5 -28 10 -8 13 15 13 35 0z m-233 -22 c-3 -8
-6 -5 -6 6 -1 11 2 17 5 13 3 -3 4 -12 1 -19z m494 -12 c5 3 9 0 9 -6 0 -15
-23 -7 -26 8 -1 7 0 8 3 2 2 -5 9 -8 14 -4z m-124 -33 c-8 -9 -20 -12 -26 -9
-19 12 -12 24 15 24 23 0 24 -2 11 -15z m17 -28 c-4 -8 -10 -15 -15 -15 -4 0
-6 7 -3 15 4 8 10 15 15 15 4 0 6 -7 3 -15z m-14 -74 c0 -6 -4 -13 -10 -16 -5
-3 -10 1 -10 9 0 9 5 16 10 16 6 0 10 -4 10 -9z m40 -537 c0 -2 -9 -4 -20 -4
-11 0 -20 4 -20 9 0 5 9 7 20 4 11 -3 20 -7 20 -9z"/>
<path d="M6272 1314 c-33 -14 -35 -14 -53 -14 -5 0 -7 -5 -3 -12 4 -7 3 -8 -5
-4 -7 5 -22 -3 -37 -21 -22 -25 -22 -29 -8 -40 9 -6 14 -20 11 -30 -4 -16 -6
-15 -12 5 -6 18 -10 20 -16 10 -11 -17 -7 20 5 42 4 8 -1 6 -11 -5 -10 -11
-30 -26 -45 -34 -14 -7 -34 -28 -44 -47 -10 -18 -22 -30 -27 -27 -6 3 -7 1 -3
-5 3 -6 0 -17 -8 -25 -11 -11 -12 -17 -3 -26 8 -8 7 -11 -5 -11 -21 0 -48 -59
-41 -92 3 -16 1 -28 -4 -28 -9 0 -11 -19 -14 -92 -1 -48 11 -113 24 -122 8 -6
17 -22 21 -36 6 -19 5 -21 -3 -10 -6 8 -11 10 -11 4 0 -6 9 -23 20 -36 10 -14
16 -28 13 -32 -3 -3 -1 -6 5 -6 7 0 12 -7 12 -16 0 -8 5 -12 10 -9 8 5 7 11
-1 21 -6 8 -9 17 -5 21 3 3 6 2 6 -4 0 -5 7 -10 15 -10 8 0 15 4 15 9 0 4 5 8
10 8 6 0 1 -14 -12 -30 -18 -25 -20 -32 -8 -43 10 -10 11 -9 5 2 -6 10 -4 12
4 7 6 -4 10 -15 9 -24 -2 -9 3 -16 10 -14 6 1 12 -2 12 -6 0 -4 10 -8 23 -9
21 -2 21 -1 -3 12 -14 7 -29 11 -34 8 -5 -4 -6 -1 -2 5 4 6 13 9 20 6 7 -3 16
2 19 10 4 9 12 16 19 16 10 0 10 -2 -1 -9 -9 -6 -10 -11 -2 -15 6 -4 9 -11 6
-16 -8 -13 24 -40 46 -40 21 0 25 -15 7 -26 -6 -4 -17 1 -24 10 -7 11 -18 15
-25 10 -8 -4 -10 -3 -5 4 4 7 1 12 -9 12 -53 0 65 -59 170 -85 60 -15 77 -16
137 -5 37 7 68 16 68 18 0 3 -7 13 -15 22 -13 14 -12 16 13 15 19 0 26 -5 24
-17 -2 -15 0 -16 28 -1 43 21 92 90 87 122 -2 15 -2 21 0 15 2 -7 13 -14 24
-17 13 -4 17 -10 12 -23 -5 -12 -3 -15 6 -9 10 6 11 2 7 -16 -7 -23 -7 -23 8
-5 9 11 16 15 16 10 0 -6 -5 -15 -10 -20 -14 -14 -2 -44 19 -45 12 0 11 -2 -4
-9 -13 -5 12 -9 73 -11 l92 -4 0 415 c0 319 -3 419 -12 429 -10 11 -10 13 0 7
6 -4 12 -3 12 3 0 5 -39 11 -89 13 -67 2 -87 0 -80 -9 7 -7 6 -14 -1 -18 -6
-3 -8 -10 -5 -15 3 -4 2 -15 -1 -24 -5 -13 -8 -13 -20 -1 -20 19 -17 30 3 14
15 -12 16 -12 10 3 -3 10 -2 20 3 23 14 9 -12 34 -28 27 -10 -3 -11 -7 -2 -12
9 -6 9 -12 -1 -28 -12 -19 -10 -24 15 -45 24 -21 27 -29 21 -57 l-7 -32 -17
23 c-22 33 -44 37 -36 7 6 -22 6 -22 -9 -4 -19 23 -21 51 -4 40 7 -4 8 -3 4 5
-5 7 -12 9 -19 3 -15 -12 -48 -11 -41 0 4 5 12 7 20 4 9 -3 14 2 14 15 0 12
-10 23 -25 29 -14 5 -25 15 -25 21 0 7 -3 10 -6 7 -10 -11 16 -49 29 -42 7 4
8 3 4 -1 -10 -12 -38 -15 -32 -4 4 5 -5 20 -19 34 -14 14 -22 25 -18 25 11 0
-22 20 -33 20 -5 0 -5 -4 2 -8 6 -4 -10 -7 -35 -8 l-47 -1 35 12 35 13 -43 -2
c-23 -1 -47 -7 -53 -13 -6 -6 -18 -9 -26 -6 -12 5 -12 7 -1 14 9 6 7 9 -9 9
-12 0 -25 -4 -28 -10 -3 -5 -1 -10 6 -10 7 0 9 -3 5 -7 -4 -5 -13 -1 -20 9
-10 14 -16 14 -44 2z m-193 -156 c-11 -4 -18 -12 -15 -17 3 -5 -3 -20 -15 -32
l-20 -24 12 25 c7 14 14 31 15 38 1 7 8 20 15 28 10 12 14 12 20 2 5 -8 1 -15
-12 -20z m447 18 c15 -8 31 -13 36 -10 4 3 5 -2 2 -10 -8 -20 -18 -20 -35 0
-7 9 -22 20 -34 24 -11 5 -15 9 -9 9 7 1 24 -6 40 -13z m-179 -12 c-3 -3 -12
-4 -19 -1 -8 3 -5 6 6 6 11 1 17 -2 13 -5z m276 -13 c3 -14 1 -18 -9 -14 -8 3
-14 11 -14 19 0 21 17 17 23 -5z m-487 -29 c-4 -3 -11 0 -16 8 -15 24 -11 33
6 15 9 -9 13 -19 10 -23z m292 24 c15 -5 22 -3 22 6 0 8 5 6 11 -5 6 -9 15
-15 20 -11 5 3 16 0 24 -6 8 -6 20 -8 26 -4 7 4 9 3 6 -3 -4 -6 0 -14 9 -17
10 -4 13 -2 8 7 -6 9 -5 9 8 0 8 -7 19 -9 23 -5 5 4 5 2 1 -5 -3 -6 4 -19 16
-27 12 -9 19 -16 14 -16 -5 0 -3 -7 4 -15 7 -9 24 -14 38 -13 14 2 26 -3 28
-10 1 -7 0 -8 -3 -2 -8 16 -20 12 -26 -10 -3 -11 0 -23 5 -27 7 -3 8 -1 4 5
-4 7 -2 12 3 12 6 0 11 -6 11 -12 0 -7 9 1 20 17 11 17 20 23 20 15 -1 -20
-24 -50 -39 -50 -6 0 -11 -5 -11 -11 0 -5 4 -8 9 -5 13 8 20 -43 10 -76 -4
-17 -4 -40 1 -54 9 -22 6 -28 -13 -25 -4 1 -5 -24 -3 -54 3 -30 1 -57 -3 -59
-7 -5 -11 9 -12 48 0 10 -1 17 -2 15 -2 -2 -9 -13 -17 -23 -13 -18 -13 -19 0
-11 20 11 13 4 -40 -40 -25 -21 -44 -42 -42 -47 1 -5 -8 -7 -20 -3 -18 5 -20
4 -8 -4 12 -9 9 -11 -14 -11 -37 0 -24 -14 15 -16 17 -1 26 2 22 9 -3 6 -1 7
6 3 15 -10 3 -29 -15 -22 -16 6 -46 -3 -40 -13 2 -3 -7 -7 -21 -8 -19 -1 -22
1 -12 8 10 6 8 9 -11 10 -24 2 -24 2 -2 6 12 2 22 9 22 14 0 5 -10 7 -22 4
-13 -3 -34 -6 -48 -6 -14 1 -35 1 -48 1 -13 0 -20 5 -17 10 3 6 -1 7 -9 4 -9
-3 -13 -10 -10 -15 3 -5 -2 -6 -11 -3 -14 6 -14 8 2 19 14 11 15 13 3 13 -32
-2 -51 2 -46 11 5 8 -20 36 -33 36 -3 0 -5 4 -3 8 1 5 -10 0 -25 -10 -49 -34
-59 -37 -23 -5 34 29 34 31 17 49 -9 11 -15 22 -13 24 2 2 -2 9 -9 16 -10 9
-13 7 -11 -13 0 -13 9 -27 19 -30 22 -7 22 -16 -3 -32 -12 -7 -20 -8 -20 -2 0
5 5 10 10 10 6 0 10 5 10 11 0 6 -7 8 -16 5 -8 -3 -12 -2 -9 4 3 6 2 10 -4 10
-5 0 -12 -6 -14 -12 -4 -9 -6 -8 -6 2 0 8 8 30 17 48 18 33 18 107 1 96 -5 -3
-9 4 -9 15 0 12 4 21 9 21 5 0 11 16 13 36 3 27 0 38 -14 45 -21 11 -24 29 -5
29 8 0 14 12 14 30 l0 30 -24 -22 c-16 -15 -23 -17 -23 -7 0 19 12 34 33 42
13 5 20 0 27 -18 11 -30 21 -31 44 -6 13 15 14 20 4 24 -7 3 2 8 20 12 45 10
48 21 4 18 -27 -2 -32 -1 -17 5 11 5 32 7 47 6 16 -2 28 1 28 8 0 6 3 9 6 5 8
-8 64 13 64 25 0 6 6 8 13 5 6 -2 22 -7 35 -11z m-81 -2 c-3 -3 -12 -4 -19 -1
-8 3 -5 6 6 6 11 1 17 -2 13 -5z m353 -41 c0 -13 -4 -23 -9 -23 -5 0 -9 16 -8
35 1 38 17 26 17 -12z m-516 3 c-21 -15 -30 -14 -19 3 3 6 14 11 23 11 13 0
13 -2 -4 -14z m453 -14 c1 -12 -2 -22 -7 -22 -6 0 -10 5 -10 11 0 5 -4 8 -9 5
-8 -5 -8 5 -2 32 3 13 25 -8 28 -26z m-545 -24 c-8 -8 -9 -4 -5 13 4 13 8 18
11 10 2 -7 -1 -18 -6 -23z m108 22 c0 -5 -5 -10 -11 -10 -5 0 -7 5 -4 10 3 6
8 10 11 10 2 0 4 -4 4 -10z m-140 -25 c-7 -9 -15 -13 -17 -11 -7 7 7 26 19 26
6 0 6 -6 -2 -15z m147 -17 c-3 -8 -6 -5 -6 6 -1 11 2 17 5 13 3 -3 4 -12 1
-19z m493 2 c0 -5 -2 -10 -4 -10 -3 0 -8 5 -11 10 -3 6 -1 10 4 10 6 0 11 -4
11 -10z m-699 -45 c5 3 6 -1 2 -10 -5 -13 -7 -14 -14 -3 -5 7 -8 22 -7 33 1
17 1 17 5 -3 2 -12 9 -20 14 -17z m99 -32 c0 -5 -5 -15 -10 -23 -8 -12 -10
-11 -10 8 0 12 5 22 10 22 6 0 10 -3 10 -7z m619 -53 c0 -10 -3 -8 -9 5 -12
27 -12 43 0 25 5 -8 9 -22 9 -30z m-572 8 c-3 -8 -6 -5 -6 6 -1 11 2 17 5 13
3 -3 4 -12 1 -19z m-170 -40 c-3 -8 -6 -5 -6 6 -1 11 2 17 5 13 3 -3 4 -12 1
-19z m-10 -60 c-3 -8 -6 -5 -6 6 -1 11 2 17 5 13 3 -3 4 -12 1 -19z m20 -35
c-3 -10 -5 -4 -5 12 0 17 2 24 5 18 2 -7 2 -21 0 -30z m168 27 c-3 -5 -12 -10
-18 -10 -7 0 -6 4 3 10 19 12 23 12 15 0z m-188 -42 c-3 -8 -6 -5 -6 6 -1 11
2 17 5 13 3 -3 4 -12 1 -19z m753 -28 c0 -10 -5 -22 -10 -25 -13 -8 -24 20
-16 41 8 20 26 9 26 -16z m-79 -90 c5 0 9 -7 9 -15 0 -12 -3 -12 -18 3 -10 9
-16 24 -13 32 4 12 6 12 9 -2 2 -10 8 -18 13 -18z m79 4 c0 -8 -4 -12 -10 -9
-5 3 -10 10 -10 16 0 5 5 9 10 9 6 0 10 -7 10 -16z m-469 -31 c-8 -15 -10 -15
-11 -2 0 17 10 32 18 25 2 -3 -1 -13 -7 -23z m364 9 c-3 -3 -11 0 -18 7 -9 10
-8 11 6 5 10 -3 15 -9 12 -12z m95 -37 c10 -12 10 -15 -3 -15 -8 0 -17 7 -21
15 -3 8 -2 15 3 15 5 0 14 -7 21 -15z m-393 -31 c-3 -3 -12 -4 -19 -1 -8 3 -5
6 6 6 11 1 17 -2 13 -5z m88 -2 c22 -16 14 -32 -15 -32 -32 0 -37 9 -18 28 14
14 19 15 33 4z m159 -18 c3 -9 6 -23 5 -32 0 -12 -3 -10 -9 6 -5 12 -14 22
-20 22 -5 0 -10 5 -10 10 0 16 27 11 34 -6z m70 -8 c-3 -8 -14 -14 -25 -13
-26 2 -24 15 4 20 12 2 23 5 24 6 1 0 0 -5 -3 -13z m-40 -51 c-9 -14 -18 -25
-20 -25 -2 0 2 11 8 25 6 14 15 25 20 25 5 0 1 -11 -8 -25z m-224 -15 c11 -7
5 -8 -20 -4 -43 8 -51 14 -19 14 13 0 31 -5 39 -10z m116 -32 c4 -6 3 -8 -4
-4 -6 3 -13 2 -17 -4 -9 -15 -32 -12 -32 5 0 18 42 21 53 3z m-67 -24 c9 -8
-45 -2 -64 6 -14 7 -8 8 20 3 22 -3 42 -7 44 -9z"/>
<path d="M6173 1010 c0 -16 4 -30 8 -30 8 0 5 47 -3 55 -3 3 -5 -8 -5 -25z"/>
<path d="M6701 744 c0 -11 3 -14 6 -6 3 7 2 16 -1 19 -3 4 -6 -2 -5 -13z"/>
<path d="M7810 1326 c0 -2 7 -7 16 -10 8 -3 12 -2 9 4 -6 10 -25 14 -25 6z"/>
<path d="M7852 1318 c-15 -15 -45 -20 -52 -7 -4 5 -19 3 -38 -7 -19 -9 -29
-20 -25 -26 4 -7 0 -9 -10 -5 -18 7 -40 -15 -44 -46 -3 -17 -1 -19 9 -9 17 17
24 15 25 -7 1 -11 -6 -21 -18 -24 -10 -3 -17 -1 -14 3 11 17 -17 21 -29 5 -11
-16 -14 -16 -28 -2 -9 9 -19 13 -24 9 -5 -4 0 3 10 15 19 23 15 60 -5 47 -9
-5 -10 1 -5 20 6 24 4 26 -29 26 -19 0 -35 -4 -35 -10 0 -5 -7 -10 -16 -10 -8
0 -13 4 -10 9 5 7 -80 21 -87 14 -1 -1 -1 -195 1 -432 l2 -431 73 0 c43 0 67
4 59 9 -11 7 -11 9 2 14 11 4 16 1 16 -9 0 -12 7 -15 26 -11 19 3 24 1 20 -10
-3 -8 -1 -11 5 -8 7 5 9 101 8 290 -2 223 0 287 10 299 10 12 10 16 1 16 -6 0
15 23 49 52 33 29 58 54 56 57 -3 2 -13 -3 -22 -11 -15 -14 -20 -14 -30 -2
-19 20 -16 26 10 19 15 -4 18 -3 8 3 -8 6 -9 12 -3 16 6 3 12 1 14 -5 2 -5 23
-13 47 -16 40 -6 43 -4 37 14 -4 13 -2 23 7 26 10 4 13 -1 9 -19 -5 -27 -3
-28 30 -15 55 20 78 22 78 6 0 -11 -6 -14 -24 -9 -13 3 -27 1 -30 -5 -4 -6 7
-13 26 -16 55 -10 104 -81 123 -180 7 -36 6 -465 -1 -477 -3 -4 2 -5 10 -2 9
3 16 1 16 -5 0 -6 -4 -11 -10 -11 -5 0 -10 -8 -9 -17 0 -11 3 -13 6 -5 3 8 33
12 98 12 65 0 95 -4 99 -12 8 -20 0 625 -9 650 -4 13 -13 21 -19 19 -6 -2 -16
3 -22 11 -14 19 -35 7 -27 -16 5 -13 3 -15 -7 -5 -10 9 -7 18 15 45 16 18 26
25 22 16 -3 -9 0 -22 8 -28 11 -9 12 -7 8 12 -9 35 -43 79 -55 71 -7 -4 -9 0
-5 10 6 15 -3 22 -25 18 -5 0 -8 5 -8 13 0 8 -5 18 -12 22 -7 5 -8 3 -3 -6 6
-10 4 -12 -10 -6 -15 5 -16 4 -6 -8 10 -12 9 -14 -3 -12 -27 4 -32 17 -12 32
16 11 17 14 4 14 -9 0 -18 5 -20 12 -3 8 -10 8 -26 -4 -12 -8 -19 -18 -15 -21
3 -4 1 -7 -6 -7 -6 0 -11 8 -9 18 2 13 -3 16 -22 14 -20 -3 -23 -1 -12 9 10
11 16 11 33 1 21 -13 39 -9 25 5 -12 12 -130 7 -134 -6 -2 -6 -8 -11 -14 -11
-6 0 -8 7 -4 15 7 18 -5 20 -22 3z m73 -17 c3 -5 0 -13 -6 -17 -7 -4 -9 -3 -5
4 3 5 0 13 -6 15 -9 4 -10 6 -1 6 6 1 14 -3 18 -8z m-450 -11 c-3 -5 -12 -7
-20 -3 -21 7 -19 13 6 13 11 0 18 -4 14 -10z m108 0 c-13 -5 -23 -14 -23 -20
0 -5 -5 -10 -10 -10 -6 0 -5 8 2 20 7 11 22 20 33 19 18 0 18 -1 -2 -9z m183
-25 c-17 -16 -21 -26 -14 -33 8 -8 5 -9 -11 -5 -11 3 -21 9 -21 14 0 5 -8 5
-17 2 -15 -6 -16 -5 -3 9 11 11 17 13 23 4 5 -8 10 -7 16 4 5 8 8 17 6 20 -2
3 8 6 21 6 l25 2 -25 -23z m-219 -57 c-3 -8 -6 -5 -6 6 -1 11 2 17 5 13 3 -3
4 -12 1 -19z m466 7 c8 -8 17 -12 20 -9 3 3 8 1 11 -5 10 -15 -46 -2 -64 15
-12 12 -12 14 2 14 9 0 23 -7 31 -15z m106 4 c6 9 11 8 21 -3 7 -9 16 -14 20
-11 5 3 11 1 15 -5 11 -19 -27 -23 -55 -7 -15 9 -29 14 -32 12 -3 -3 -5 2 -5
10 0 11 3 12 14 3 11 -9 16 -9 22 1z m-322 -26 c-3 -3 -11 -2 -17 2 -9 6 -9
10 1 16 14 8 27 -7 16 -18z m-197 -28 c0 -21 -17 -27 -24 -9 -10 25 -7 34 9
28 8 -4 15 -12 15 -19z m167 19 c-3 -3 -12 -4 -19 -1 -8 3 -5 6 6 6 11 1 17
-2 13 -5z m-83 -57 c3 3 6 1 6 -6 0 -7 5 -9 10 -6 18 11 11 -1 -14 -24 l-25
-23 6 23 c6 21 4 22 -9 11 -13 -11 -15 -9 -15 12 0 21 3 24 17 16 10 -5 20 -6
24 -3z m336 -1 c0 -7 -7 -19 -15 -26 -13 -11 -18 -11 -28 0 -10 10 -8 12 8 6
19 -6 19 -5 3 8 -24 18 -23 21 7 24 15 1 25 -3 25 -12z m167 -38 c-3 -8 -6 -5
-6 6 -1 11 2 17 5 13 3 -3 4 -12 1 -19z m-586 -37 c-8 -6 -9 -11 -3 -15 6 -4
15 2 21 11 6 10 10 14 10 8 0 -5 -6 -18 -13 -28 -13 -17 -14 -17 -21 0 -16 36
-11 63 9 43 8 -8 7 -13 -3 -19z m519 -11 c0 -11 -4 -20 -10 -20 -5 0 -10 9
-10 20 0 11 5 20 10 20 6 0 10 -9 10 -20z m-50 -24 c-1 -20 -1 -20 -15 4 -14
24 -14 24 -10 -15 5 -38 4 -38 -5 -10 -5 17 -8 36 -5 42 7 20 35 3 35 -21z
m10 -69 c0 -7 -4 -6 -10 3 -8 13 -10 12 -10 -4 0 -11 -3 -17 -6 -13 -4 3 -4
13 0 22 6 18 26 11 26 -8z m-450 -27 c0 -5 -4 -10 -10 -10 -5 0 -10 5 -10 10
0 6 5 10 10 10 6 0 10 -4 10 -10z m530 -450 c0 -5 -4 -10 -10 -10 -5 0 -10 5
-10 10 0 6 5 10 10 10 6 0 10 -4 10 -10z m60 -6 c0 -2 -12 -4 -27 -4 -21 0
-24 3 -14 9 13 8 41 5 41 -5z m-727 -1 c-7 -2 -19 -2 -25 0 -7 3 -2 5 12 5 14
0 19 -2 13 -5z"/>
<path d="M8798 1323 c7 -3 16 -2 19 1 4 3 -2 6 -13 5 -11 0 -14 -3 -6 -6z"/>
<path d="M8840 1319 c-14 -6 -36 -8 -49 -6 -33 6 -71 -12 -71 -34 0 -10 -4
-21 -10 -24 -5 -3 -10 -11 -10 -16 0 -6 4 -8 8 -5 4 2 8 -3 8 -13 0 -10 -5
-18 -11 -18 -12 0 -14 41 -2 53 4 4 7 13 7 20 0 8 -10 4 -25 -10 -14 -13 -25
-29 -25 -35 0 -7 -5 -9 -12 -5 -8 5 -9 2 -5 -9 3 -9 1 -19 -4 -23 -20 -12 -32
15 -32 68 0 36 -2 47 -8 33 -4 -11 -8 -14 -8 -7 -1 6 -8 12 -17 12 -8 0 -12 5
-9 10 9 15 -2 12 -20 -6 -11 -12 -13 -20 -5 -29 8 -9 8 -15 0 -20 -5 -3 -10
-2 -10 3 0 11 -35 52 -44 52 -3 0 -5 -5 -3 -11 1 -6 -4 -14 -12 -17 -10 -3
-12 0 -8 12 5 12 0 16 -23 16 l-29 0 -1 -430 0 -430 94 0 c66 0 96 -4 99 -12
3 -7 4 107 4 255 -1 170 2 268 8 270 7 3 6 19 -2 48 -13 48 -9 66 6 28 5 -13
10 -22 11 -19 7 25 12 48 13 62 1 11 9 16 21 15 11 -1 21 4 21 10 0 7 11 20
24 30 13 9 21 11 17 5 -5 -9 0 -9 19 -2 39 15 127 12 149 -5 10 -8 23 -12 27
-9 5 3 9 0 9 -6 0 -7 7 -10 15 -6 8 3 14 2 13 -2 -1 -4 4 -18 12 -32 7 -14 19
-43 26 -65 7 -23 13 -31 13 -20 1 24 19 45 38 45 17 0 16 -20 -3 -45 -15 -19
-15 -19 -9 10 6 27 5 28 -7 10 -10 -15 -13 -89 -15 -305 0 -157 1 -275 4 -262
3 17 11 22 36 21 l32 -1 -30 -8 c-20 -5 1 -8 67 -9 l97 -1 0 287 c0 208 -3
291 -12 302 -10 12 -9 13 1 7 11 -7 12 -4 3 12 -6 12 -10 25 -9 29 1 4 -3 18
-10 31 -7 12 -10 27 -7 32 3 5 -5 18 -17 29 -12 12 -18 21 -13 21 4 0 0 9 -9
19 -10 11 -28 18 -42 16 -28 -3 -33 11 -6 18 13 4 12 5 -5 6 -13 0 -28 10 -35
20 -9 15 -15 17 -25 9 -8 -6 -16 -8 -20 -4 -3 3 -1 6 5 6 7 0 12 4 12 9 0 5
-10 7 -22 4 -17 -3 -19 -2 -10 5 11 7 9 10 -7 15 -11 3 -19 1 -18 -3 2 -9 -3
-10 -40 -9 l-28 1 25 8 c21 7 17 8 -20 8 -25 1 -56 -4 -70 -9z m-61 -13 c-2
-2 -15 -9 -29 -15 -24 -11 -24 -11 -6 3 16 13 49 24 35 12z m44 -13 c-7 -2
-19 -2 -25 0 -7 3 -2 5 12 5 14 0 19 -2 13 -5z m-243 -13 c0 -5 -2 -10 -4 -10
-3 0 -8 5 -11 10 -3 6 -1 10 4 10 6 0 11 -4 11 -10z m229 -10 c-13 -9 -39 -2
-39 10 0 4 12 5 26 2 17 -3 22 -7 13 -12z m64 13 c-7 -2 -19 -2 -25 0 -7 3 -2
5 12 5 14 0 19 -2 13 -5z m-283 -34 c-11 -6 -12 -11 -4 -16 19 -13 26 -50 10
-56 -9 -4 -17 3 -21 16 -10 31 -12 67 -4 61 4 -2 11 1 14 7 4 5 10 8 13 4 4
-3 0 -10 -8 -16z m472 -6 c-9 -4 -10 -9 -2 -18 8 -9 7 -14 -3 -18 -9 -3 -13 2
-11 16 3 29 2 27 17 26 9 0 9 -2 -1 -6z m79 -30 c13 -16 12 -17 -3 -4 -17 13
-22 21 -14 21 2 0 10 -8 17 -17z m-261 -13 c0 -5 8 -6 18 -3 15 6 15 5 -2 -12
-18 -19 -18 -19 3 -29 17 -7 27 -4 51 19 22 21 30 24 30 13 0 -26 -49 -52 -79
-42 -14 5 -27 15 -27 22 -1 6 -2 17 -3 23 0 6 -10 8 -22 4 -15 -5 -19 -4 -15
4 9 14 46 15 46 1z m-70 -10 c0 -5 -5 -10 -11 -10 -5 0 -7 5 -4 10 3 6 8 10
11 10 2 0 4 -4 4 -10z m342 -37 c-5 -16 -19 -17 -28 -1 -4 7 -3 8 4 4 15 -9
15 -1 1 27 -12 22 -12 22 8 2 11 -11 18 -26 15 -32z m-387 27 c16 -7 17 -9 3
-9 -9 -1 -22 -3 -30 -4 -7 -2 -9 -2 -4 1 4 2 2 8 -5 13 -12 7 -11 9 1 8 8 0
24 -4 35 -9z m162 -6 c-3 -3 -12 -4 -19 -1 -8 3 -5 6 6 6 11 1 17 -2 13 -5z
m-80 -10 c-3 -3 -12 -4 -19 -1 -8 3 -5 6 6 6 11 1 17 -2 13 -5z m329 -22 c0
-10 -6 -19 -13 -19 -8 0 -9 6 -2 19 5 10 11 18 12 18 2 0 3 -8 3 -18z m-140
-44 c1 -31 -1 -37 -7 -23 -7 18 -8 17 -8 -7 -1 -15 -5 -30 -11 -33 -6 -3 -7 1
-4 9 4 10 1 16 -7 16 -12 0 -12 2 0 9 8 5 14 23 15 40 2 47 21 37 22 -11z m94
5 c-1 -24 -2 -26 -11 -10 -5 9 -7 22 -4 27 10 17 15 11 15 -17z m-550 -4 c0
-11 -4 -17 -10 -14 -5 3 -10 13 -10 21 0 8 5 14 10 14 6 0 10 -9 10 -21z m90
11 c8 -5 11 -10 5 -10 -5 0 -17 5 -25 10 -8 5 -10 10 -5 10 6 0 17 -5 25 -10z
m324 -14 c-3 -9 -10 -13 -15 -10 -5 3 -3 11 4 19 15 16 19 13 11 -9z m-389
-104 c-4 -4 -10 -1 -12 6 -3 6 -9 10 -14 6 -5 -3 -9 1 -9 9 0 24 13 27 28 6 8
-11 11 -23 7 -27z m-110 -522 c4 -6 -6 -10 -22 -9 -25 0 -26 1 -8 9 11 5 21 9
22 9 1 1 5 -3 8 -9z m70 0 c-3 -5 -16 -10 -28 -9 -21 0 -21 1 -2 9 28 12 37
12 30 0z m635 -6 c0 -2 -12 -4 -26 -4 -14 0 -23 4 -20 9 6 8 46 4 46 -5z"/>
<path d="M9714 1321 c13 -5 16 -10 8 -15 -6 -4 -20 -2 -31 4 -27 14 -51 13
-31 -1 12 -9 11 -10 -6 -6 -12 2 -28 0 -35 -5 -11 -8 -10 -9 4 -4 9 3 17 0 17
-6 0 -6 -11 -8 -31 -4 -28 5 -30 4 -18 -11 13 -15 12 -15 -8 -5 -18 10 -24 9
-40 -11 -10 -13 -24 -22 -32 -19 -8 3 -11 0 -7 -7 4 -6 2 -11 -4 -11 -6 0 -8
-5 -4 -12 4 -7 3 -8 -5 -4 -13 8 -50 -30 -51 -52 0 -8 -5 -10 -12 -6 -10 6
-10 4 -2 -7 14 -18 11 -96 -4 -111 -9 -9 -12 -9 -12 3 0 8 -7 24 -16 35 -15
18 -15 18 -8 -5 4 -16 3 -21 -5 -17 -7 4 -11 0 -11 -11 0 -11 -5 -24 -11 -30
-13 -13 -20 -125 -8 -117 5 3 5 -5 0 -18 -5 -13 -8 -39 -6 -58 2 -19 3 -43 4
-53 1 -11 6 -15 13 -11 8 5 9 0 6 -14 -4 -12 -2 -22 4 -22 5 0 6 -4 3 -10 -3
-5 -1 -10 5 -10 7 0 10 -6 7 -14 -8 -20 4 -28 20 -14 12 10 14 8 11 -8 -1 -10
-7 -22 -13 -26 -6 -5 -5 -8 3 -8 6 0 12 -7 12 -15 0 -8 14 -21 30 -30 17 -9
30 -18 30 -21 0 -3 -6 -2 -12 2 -8 5 -7 0 2 -11 19 -24 90 -75 103 -75 6 0 -3
11 -21 23 -29 22 -33 37 -9 37 6 0 8 -3 4 -6 -8 -8 18 -34 34 -34 8 0 8 5 -2
18 -13 15 -12 16 3 3 10 -7 16 -17 13 -21 -3 -5 4 -12 16 -15 12 -4 18 -12 15
-20 -3 -9 0 -12 10 -8 7 3 14 1 14 -5 0 -14 70 -23 91 -11 12 6 19 6 19 0 0
-5 -6 -12 -12 -14 -7 -3 8 -6 34 -6 49 -1 74 14 36 22 -20 4 -20 4 4 6 15 0
29 -3 32 -8 8 -12 56 -5 99 14 12 5 15 11 7 20 -7 8 -5 12 5 12 8 0 15 -6 15
-14 0 -16 16 -17 25 -2 4 6 14 8 22 5 8 -3 12 -2 9 3 -3 5 8 14 24 21 17 7 33
17 37 23 3 5 1 7 -5 3 -6 -3 -9 1 -7 11 2 10 4 22 4 27 1 5 9 0 19 -10 17 -19
17 -19 37 2 22 23 32 49 15 39 -6 -4 -26 -4 -45 -1 -28 6 -32 10 -27 28 l5 22
8 -22 c5 -13 17 -22 29 -22 26 0 26 21 0 43 -11 9 -20 15 -20 13 0 -2 -13 8
-30 24 -41 38 -61 41 -90 12 -14 -14 -19 -22 -12 -18 6 4 12 5 12 2 0 -13 -99
-58 -129 -58 -25 0 -30 -3 -20 -10 10 -7 3 -8 -21 -4 -25 4 -31 3 -20 -4 13
-8 12 -10 -3 -10 -10 0 -16 -4 -13 -9 3 -4 -7 -6 -22 -3 l-27 6 25 7 c17 5 19
7 7 8 -10 1 -16 5 -12 10 3 6 -3 9 -12 9 -10 0 -27 3 -38 6 l-20 8 20 -17 c20
-17 20 -17 -5 -11 -24 7 -24 6 -6 -8 11 -9 15 -16 9 -16 -7 0 -14 4 -17 9 -4
5 -17 8 -30 7 -14 -2 -30 1 -38 6 -10 7 -10 9 2 7 38 -4 60 2 60 16 0 8 -4 15
-9 15 -5 0 -17 7 -25 16 -9 8 -16 11 -16 5 0 -6 -4 -11 -10 -11 -5 0 -6 7 -3
17 5 12 3 14 -7 8 -8 -5 -11 -4 -7 2 9 14 -17 65 -28 55 -5 -4 -6 0 -3 8 3 8
2 24 -3 35 -7 19 -8 19 -8 1 -1 -14 -4 -17 -11 -10 -12 12 -2 47 10 39 5 -3
12 -1 15 5 4 7 113 10 327 10 176 -1 323 1 326 5 10 10 1 178 -11 200 -7 13
-12 16 -15 7 -2 -6 -8 -12 -14 -12 -6 0 -3 8 6 19 16 18 16 20 -11 40 -22 18
-25 25 -16 40 8 13 7 22 -3 36 -10 13 -14 14 -14 5 0 -10 -3 -11 -11 -3 -13
13 -39 6 -39 -9 0 -6 7 -7 16 -4 13 5 14 4 6 -7 -7 -8 -11 -16 -9 -18 1 -2 -3
1 -9 8 -6 7 -14 10 -18 6 -4 -4 -4 0 0 10 7 20 4 20 -31 7 -20 -8 -26 -7 -23
2 5 14 55 30 60 19 2 -4 14 -2 27 5 l23 12 -22 12 c-15 8 -20 8 -16 1 4 -6 2
-11 -3 -11 -6 0 -11 7 -11 16 0 9 -5 12 -12 8 -10 -6 -10 -5 -1 8 7 8 10 17 7
21 -9 8 -35 -4 -29 -13 3 -5 1 -12 -5 -15 -6 -4 -9 -1 -8 6 2 6 -3 14 -10 16
-7 3 -11 -1 -10 -7 2 -7 -3 -15 -10 -17 -11 -4 -12 -1 -3 15 6 10 7 22 3 26
-3 4 1 4 11 0 9 -3 17 -3 17 1 0 14 -46 44 -68 45 -12 0 -25 6 -28 14 -3 8
-15 14 -27 14 -12 1 -67 3 -122 6 -55 2 -91 1 -81 -3z m74 -24 c4 -19 -15 -22
-38 -6 -12 8 -9 9 10 4 l25 -6 -25 15 -25 16 25 -4 c14 -1 26 -10 28 -19z
m102 7 c0 -2 -16 -4 -36 -4 -19 0 -33 4 -30 8 5 8 66 4 66 -4z m35 -4 c-3 -5
-1 -10 6 -10 7 0 10 -3 6 -6 -9 -9 -28 6 -22 17 4 5 8 9 11 9 3 0 2 -4 -1 -10z
m-48 -16 c-3 -3 -12 -4 -19 -1 -8 3 -5 6 6 6 11 1 17 -2 13 -5z m128 -14 c3
-5 1 -10 -4 -10 -6 0 -11 5 -11 10 0 6 2 10 4 10 3 0 8 -4 11 -10z m-431 -32
c-3 -4 -11 -5 -19 -2 -11 5 -12 9 -2 19 12 13 31 -1 21 -17z m354 10 c7 -7 12
-16 12 -22 0 -5 -6 -3 -12 6 -7 9 -24 19 -38 21 l-25 4 26 2 c14 0 30 -4 37
-11z m-358 -28 c8 -5 12 -11 10 -14 -3 -2 -14 2 -24 10 -22 15 -10 19 14 4z
m125 0 c-27 -12 -35 -12 -35 0 0 6 12 10 28 9 24 0 25 -1 7 -9z m-150 -18 c-3
-3 -11 0 -18 7 -9 10 -8 11 6 5 10 -3 15 -9 12 -12z m305 -3 c-12 -9 -11 -10
8 -6 12 3 20 1 16 -4 -7 -11 -44 -12 -44 -1 0 12 11 22 24 22 6 0 4 -5 -4 -11z
m-102 -8 c11 -7 11 -9 -2 -14 -21 -8 -21 -27 0 -27 8 0 13 4 10 9 -6 9 25 21
53 21 11 0 9 -4 -5 -16 -18 -14 -16 -15 30 -11 27 3 43 2 37 -2 -7 -5 4 -13
28 -21 22 -7 38 -17 35 -21 -3 -5 4 -9 15 -9 11 0 23 5 26 10 4 6 11 8 16 4 5
-3 7 -10 3 -15 -3 -6 2 -17 12 -24 18 -14 18 -14 -3 -15 -21 0 -28 10 -24 33
1 5 -3 6 -9 2 -11 -7 -8 -13 24 -60 12 -16 26 -40 33 -53 l12 -23 -252 1
c-182 1 -247 4 -233 12 15 8 16 12 5 19 -8 5 -17 3 -22 -4 -5 -7 -5 -2 -2 12
5 17 4 21 -5 16 -9 -6 -9 -3 -1 14 12 21 31 29 31 12 0 -5 7 -12 16 -15 8 -3
12 -2 9 4 -3 5 3 17 13 27 9 10 24 27 32 37 14 18 13 19 -2 13 -19 -7 -33 7
-23 23 3 6 15 1 28 -11 18 -16 23 -18 32 -6 5 8 20 17 32 21 15 5 19 12 16 26
-4 15 0 20 13 20 16 0 17 2 4 10 -8 5 -10 10 -5 10 6 0 16 -4 23 -9z m-271
-19 c-10 -10 -18 -27 -18 -38 -1 -16 -2 -16 -6 -2 -5 21 13 58 29 58 6 0 4 -8
-5 -18z m58 -2 c-3 -5 -10 -10 -16 -10 -5 0 -9 5 -9 10 0 6 7 10 16 10 8 0 12
-4 9 -10z m445 -14 c0 -8 -7 -16 -15 -20 -17 -6 -18 -4 -9 18 8 20 24 21 24 2z
m-494 -33 c-11 -11 -17 4 -9 23 7 18 8 18 11 1 2 -10 1 -21 -2 -24z m26 5 c-7
-7 -12 -8 -12 -2 0 14 12 26 19 19 2 -3 -1 -11 -7 -17z m403 12 c3 -6 -1 -7
-9 -4 -18 7 -21 14 -7 14 6 0 13 -4 16 -10z m129 -56 c17 -7 22 -34 6 -34 -5
0 -10 6 -10 14 0 8 -6 17 -12 19 -7 3 -10 6 -6 6 3 1 13 -2 22 -5z m76 -21 c0
-30 -9 -27 -15 6 -2 11 0 21 6 21 5 0 9 -12 9 -27z m-620 -54 c0 -24 -4 -38
-10 -34 -5 3 -10 24 -10 46 0 24 4 38 10 34 6 -3 10 -24 10 -46z m571 -41 c-6
-12 -10 -18 -10 -11 -1 6 -8 18 -16 27 -9 9 -11 17 -5 21 5 3 10 1 10 -4 0 -6
4 -11 10 -11 5 0 7 8 4 18 -5 15 -5 16 5 0 7 -11 8 -24 2 -40z m69 1 c0 -5 -4
-9 -10 -9 -5 0 -10 7 -10 16 0 8 5 12 10 9 6 -3 10 -10 10 -16z m-729 -106
c-9 -15 -10 -12 -10 17 0 29 1 32 10 18 7 -12 7 -24 0 -35z m94 -112 c-9 -16
-25 -3 -18 15 4 10 9 12 15 6 6 -6 7 -15 3 -21z m-45 -12 c0 -5 -4 -9 -10 -9
-5 0 -10 7 -10 16 0 8 5 12 10 9 6 -3 10 -10 10 -16z m100 -33 c0 -17 -40 -39
-77 -42 -48 -3 -40 13 10 23 29 7 42 14 41 25 -1 10 4 14 12 11 8 -3 14 -10
14 -17z m-132 7 c-10 -2 -18 -9 -18 -14 0 -6 -5 -7 -11 -3 -14 8 8 24 31 23
11 -1 10 -3 -2 -6z m10 -54 c-3 -42 -14 -45 -13 -3 0 19 3 34 8 34 4 0 6 -14
5 -31z m576 16 c-7 -18 5 -20 20 -2 6 7 10 10 8 8 -1 -2 6 -14 15 -25 10 -12
11 -15 3 -8 -17 14 -34 16 -25 2 11 -18 -11 -11 -29 9 -17 18 -16 20 11 30 1
1 0 -6 -3 -14z m-464 -65 c-19 -13 -30 -13 -30 0 0 6 10 10 23 10 18 0 19 -2
7 -10z m48 -22 c-2 -6 -10 -14 -16 -16 -7 -2 -10 2 -6 12 7 18 28 22 22 4z
m315 -15 c5 -9 -68 -11 -76 -3 -3 3 12 6 33 8 21 1 41 -1 43 -5z m-394 -39
c-9 -11 -15 -12 -26 -3 -7 7 -11 14 -8 18 3 3 10 -1 15 -9 8 -13 10 -12 10 3
0 10 5 15 10 12 8 -5 7 -11 -1 -21z m174 -11 c-7 -2 -21 -2 -30 0 -10 3 -4 5
12 5 17 0 24 -2 18 -5z m217 -33 c-8 -15 -5 -20 18 -28 l27 -9 -38 -8 c-21 -4
-41 -5 -44 -1 -4 3 7 6 23 7 l29 0 -25 11 c-15 6 -20 12 -12 15 6 3 12 14 12
24 0 11 5 17 10 14 7 -4 7 -12 0 -25z m-70 -9 c13 -25 13 -31 0 -31 -5 0 -10
7 -10 16 0 10 -6 14 -15 10 -15 -5 -20 5 -8 17 11 12 22 8 33 -12z m-95 -22
l20 0 -20 -9 c-11 -5 -33 -8 -50 -8 -27 1 -28 1 -5 6 24 4 24 5 5 13 -17 8
-16 9 5 4 14 -2 34 -5 45 -6z"/>
<path d="M9540 1033 c0 -15 18 -35 23 -27 3 5 -1 15 -9 22 -8 7 -14 9 -14 5z"/>
<path d="M3540 1310 c-12 -8 -12 -10 3 -16 21 -8 35 2 21 16 -5 5 -15 6 -24 0z"/>
<path d="M3590 1299 c0 -5 5 -7 10 -4 6 3 10 8 10 11 0 2 -4 4 -10 4 -5 0 -10
-5 -10 -11z"/>
<path d="M7055 880 l0 -430 78 0 c42 0 80 0 83 1 4 0 11 -5 16 -13 7 -9 8 -7
5 9 -3 12 1 27 9 34 10 8 12 7 9 -10 -2 -11 0 -23 5 -26 5 -3 9 174 10 428 l0
434 -34 1 c-29 1 -34 -2 -29 -16 6 -16 5 -16 -14 1 -14 12 -37 17 -79 17 l-59
0 0 -430z m185 416 c0 -3 -4 -8 -10 -11 -5 -3 -10 -1 -10 4 0 6 5 11 10 11 6
0 10 -2 10 -4z m-13 -613 c-1 -109 -2 -20 -2 197 0 217 1 306 2 198 2 -109 2
-287 0 -395z"/>
<path d="M10275 1300 c3 -5 16 -10 28 -9 21 0 21 1 2 9 -28 12 -37 12 -30 0z"/>
<path d="M2817 1273 c-10 -9 -9 -23 1 -23 5 0 9 7 9 15 0 17 -1 18 -10 8z"/>
<path d="M6670 1223 c0 -5 9 -19 20 -33 18 -24 19 -24 17 -4 -1 20 -37 55 -37
37z"/>
<path d="M2912 1202 c-14 -4 -16 -32 -2 -32 6 0 10 5 10 12 0 6 6 3 14 -8 8
-10 17 -17 19 -14 9 9 -28 47 -41 42z"/>
<path d="M4936 1183 c-10 -11 -7 -23 7 -23 8 0 20 -11 27 -25 7 -14 15 -23 17
-21 6 5 -24 63 -36 70 -4 3 -11 3 -15 -1z"/>
<path d="M3486 1135 c-18 -27 -7 -35 14 -10 7 8 17 12 24 8 6 -4 5 1 -3 10
-17 21 -16 22 -35 -8z"/>
<path d="M9408 1110 c-16 -18 -16 -20 1 -41 18 -22 18 -22 17 19 0 23 -1 42
-1 42 0 0 -8 -9 -17 -20z"/>
<path d="M2177 1096 c-4 -10 -3 -15 3 -11 6 3 10 1 10 -4 0 -6 -4 -11 -10 -11
-5 0 -10 -4 -10 -10 0 -5 4 -10 9 -10 14 0 22 30 13 47 -8 13 -10 13 -15 -1z"/>
<path d="M3400 1085 c0 -8 4 -15 10 -15 5 0 7 -8 4 -17 -4 -13 0 -11 15 6 28
31 26 41 -4 41 -16 0 -25 -6 -25 -15z"/>
<path d="M3380 1051 c0 -11 5 -23 10 -26 6 -3 10 -16 10 -27 0 -12 3 -19 6
-15 9 9 -6 87 -17 87 -5 0 -9 -9 -9 -19z"/>
<path d="M1930 1019 c0 -5 5 -7 10 -4 6 3 10 8 10 11 0 2 -4 4 -10 4 -5 0 -10
-5 -10 -11z"/>
<path d="M5080 901 c0 -6 4 -13 10 -16 6 -3 7 1 4 9 -7 18 -14 21 -14 7z"/>
<path d="M1810 861 c0 -5 5 -13 10 -16 6 -3 10 -2 10 4 0 5 -4 13 -10 16 -5 3
-10 2 -10 -4z"/>
<path d="M5212 605 c-15 -32 -15 -46 -1 -22 11 19 29 23 29 6 0 -5 -4 -7 -10
-4 -14 9 -13 -8 2 -23 9 -9 9 -12 0 -12 -7 0 -12 -4 -12 -10 0 -21 17 -8 33
26 10 19 13 33 8 30 -5 -4 -12 3 -16 14 -9 27 -19 25 -33 -5z"/>
<path d="M6684 475 c4 -24 16 -30 16 -7 0 12 -4 22 -9 22 -5 0 -8 -7 -7 -15z"/>
<path d="M9595 460 c3 -5 8 -10 11 -10 2 0 4 5 4 10 0 6 -5 10 -11 10 -5 0 -7
-4 -4 -10z"/>
<path d="M2668 423 c6 -2 18 -2 25 0 6 3 1 5 -13 5 -14 0 -19 -2 -12 -5z"/>
</g>
</svg>
