<svg xmlns="http://www.w3.org/2000/svg" width="256" height="256" viewBox="0 0 256 256" version="1.1"><path d="M 162.500 75.629 C 160.850 75.886, 157.025 76.800, 154 77.661 C 150.975 78.522, 148.050 79.316, 147.500 79.424 C 141.470 80.617, 129.756 88.147, 121.304 96.264 C 115.509 101.828, 108.982 111.489, 104.328 121.390 C 102.723 124.806, 102.683 125.395, 104 126.221 C 104.825 126.739, 117.875 131.985, 133 137.879 C 148.125 143.773, 160.445 149.024, 160.378 149.548 C 160.310 150.071, 147.935 155.287, 132.878 161.138 C 117.820 166.989, 104.680 172.389, 103.677 173.138 C 101.921 174.450, 101.932 174.682, 103.980 179.456 C 106.876 186.209, 112.557 195.535, 117.213 201.182 C 122.426 207.505, 137.762 218.666, 142.500 219.585 C 143.050 219.691, 146.269 220.719, 149.654 221.868 C 158.706 224.940, 171.713 226.163, 182.491 224.955 C 192.039 223.885, 205.854 220.117, 212.500 216.770 C 219.634 213.177, 229.841 204.984, 233.654 199.791 L 237.376 194.720 234.438 192.251 C 228.826 187.536, 208.785 173, 207.895 173 C 207.403 173, 207 173.352, 207 173.782 C 207 175.258, 197.500 184.206, 193.346 186.642 C 189.037 189.168, 188.284 189.391, 178.784 190.944 C 171.984 192.055, 161.190 190.646, 156 187.970 C 150.839 185.309, 144.464 178.255, 141.567 172 C 140.166 168.975, 139.015 165.938, 139.010 165.250 C 139.002 164.266, 150.235 164, 191.869 164 L 244.738 164 245.358 160.250 C 246.294 154.590, 246.113 144.226, 244.961 137.500 C 244.396 134.200, 243.730 130.064, 243.481 128.310 C 242.240 119.576, 232.248 103.237, 222.689 94.313 C 216.219 88.273, 204.172 80.308, 200.391 79.571 C 199.351 79.368, 195.800 78.469, 192.500 77.573 C 186.493 75.941, 168.141 74.753, 162.500 75.629 M 166 108.315 C 165.725 108.588, 164.100 109.030, 162.388 109.297 C 154.730 110.491, 145.493 118.594, 141.597 127.538 C 140.029 131.136, 138.960 134.293, 139.220 134.553 C 139.480 134.814, 155.066 134.908, 173.854 134.763 L 208.015 134.500 205.061 128.446 C 203.319 124.874, 199.921 120.324, 196.777 117.351 C 190.922 111.813, 188.758 110.428, 184.405 109.429 C 180.495 108.532, 166.626 107.693, 166 108.315" stroke="none" fill="#060605" fill-rule="evenodd"/><path d="M 172.813 74.683 C 173.534 74.972, 174.397 74.936, 174.729 74.604 C 175.061 74.272, 174.471 74.036, 173.417 74.079 C 172.252 74.127, 172.015 74.364, 172.813 74.683 M 161.750 75.662 C 162.438 75.940, 163.563 75.940, 164.250 75.662 C 164.938 75.385, 164.375 75.158, 163 75.158 C 161.625 75.158, 161.063 75.385, 161.750 75.662 M 182.269 75.693 C 183.242 75.947, 184.592 75.930, 185.269 75.656 C 185.946 75.382, 185.150 75.175, 183.500 75.195 C 181.850 75.215, 181.296 75.439, 182.269 75.693 M 188.813 76.683 C 189.534 76.972, 190.397 76.936, 190.729 76.604 C 191.061 76.272, 190.471 76.036, 189.417 76.079 C 188.252 76.127, 188.015 76.364, 188.813 76.683 M 224 95.500 C 226.987 98.525, 229.657 101, 229.932 101 C 230.207 101, 227.987 98.525, 225 95.500 C 222.013 92.475, 219.343 90, 219.068 90 C 218.793 90, 221.013 92.475, 224 95.500 M 12.607 92.582 C 11.681 94.994, 11.914 205.316, 12.847 206.787 C 13.476 207.778, 16.983 206.782, 28.082 202.459 C 36.012 199.370, 49.475 194.147, 58 190.851 C 66.525 187.556, 78.512 182.866, 84.638 180.430 C 90.764 177.993, 96.134 176, 96.572 176 C 97.010 176, 99.423 174.991, 101.934 173.758 C 104.445 172.526, 118.595 166.788, 133.378 161.008 C 148.160 155.229, 160.255 150.050, 160.255 149.500 C 160.255 148.950, 148.160 143.771, 133.378 137.992 C 118.595 132.212, 104.445 126.474, 101.934 125.242 C 99.423 124.009, 97.010 123, 96.572 123 C 96.134 123, 90.764 121.007, 84.638 118.570 C 78.512 116.134, 66.525 111.444, 58 108.149 C 49.475 104.853, 36.054 99.647, 28.176 96.578 C 20.298 93.510, 13.709 91, 13.533 91 C 13.358 91, 12.941 91.712, 12.607 92.582 M 120.462 96.250 L 115.500 101.500 120.750 96.538 C 123.638 93.808, 126 91.446, 126 91.288 C 126 90.541, 125.074 91.372, 120.462 96.250 M 152.872 113.750 C 151.629 115.336, 151.664 115.371, 153.250 114.128 C 154.916 112.821, 155.445 112, 154.622 112 C 154.415 112, 153.627 112.787, 152.872 113.750 M 193.500 115 C 194.495 116.100, 195.535 117, 195.810 117 C 196.085 117, 195.495 116.100, 194.500 115 C 193.505 113.900, 192.465 113, 192.190 113 C 191.915 113, 192.505 113.900, 193.500 115 M 145.405 120.250 L 143.500 122.500 145.750 120.595 C 146.988 119.547, 148 118.535, 148 118.345 C 148 117.545, 147.195 118.136, 145.405 120.250 M 244.079 132.583 C 244.127 133.748, 244.364 133.985, 244.683 133.188 C 244.972 132.466, 244.936 131.603, 244.604 131.271 C 244.272 130.939, 244.036 131.529, 244.079 132.583 M 245.158 139 C 245.158 140.375, 245.385 140.938, 245.662 140.250 C 245.940 139.563, 245.940 138.438, 245.662 137.750 C 245.385 137.063, 245.158 137.625, 245.158 139 M 246.272 150 C 246.272 152.475, 246.467 153.488, 246.706 152.250 C 246.944 151.012, 246.944 148.988, 246.706 147.750 C 246.467 146.512, 246.272 147.525, 246.272 150 M 245.158 161 C 245.158 162.375, 245.385 162.938, 245.662 162.250 C 245.940 161.563, 245.940 160.438, 245.662 159.750 C 245.385 159.063, 245.158 159.625, 245.158 161 M 165.320 164.749 C 180.072 164.905, 203.922 164.905, 218.320 164.749 C 232.719 164.593, 220.650 164.465, 191.500 164.466 C 162.350 164.466, 150.569 164.593, 165.320 164.749 M 148.500 182 C 151.209 184.750, 153.650 187, 153.925 187 C 154.200 187, 152.209 184.750, 149.500 182 C 146.791 179.250, 144.350 177, 144.075 177 C 143.800 177, 145.791 179.250, 148.500 182 M 223 183.378 C 223 183.585, 223.787 184.373, 224.750 185.128 C 226.336 186.371, 226.371 186.336, 225.128 184.750 C 223.821 183.084, 223 182.555, 223 183.378 M 227 186.378 C 227 186.585, 227.787 187.373, 228.750 188.128 C 230.336 189.371, 230.371 189.336, 229.128 187.750 C 227.821 186.084, 227 185.555, 227 186.378 M 171.750 191.662 C 172.438 191.940, 173.563 191.940, 174.250 191.662 C 174.938 191.385, 174.375 191.158, 173 191.158 C 171.625 191.158, 171.063 191.385, 171.750 191.662 M 235.927 193.250 C 237.017 194.698, 237.017 195.302, 235.927 196.750 C 234.672 198.417, 234.700 198.417, 236.519 196.750 C 238.398 195.028, 238.398 194.972, 236.519 193.250 C 234.700 191.583, 234.672 191.583, 235.927 193.250 M 114 198.378 C 114 198.585, 114.787 199.373, 115.750 200.128 C 117.336 201.371, 117.371 201.336, 116.128 199.750 C 114.821 198.084, 114 197.555, 114 198.378 M 196.813 222.683 C 197.534 222.972, 198.397 222.936, 198.729 222.604 C 199.061 222.272, 198.471 222.036, 197.417 222.079 C 196.252 222.127, 196.015 222.364, 196.813 222.683 M 157.813 224.683 C 158.534 224.972, 159.397 224.936, 159.729 224.604 C 160.061 224.272, 159.471 224.036, 158.417 224.079 C 157.252 224.127, 157.015 224.364, 157.813 224.683 M 187.813 224.683 C 188.534 224.972, 189.397 224.936, 189.729 224.604 C 190.061 224.272, 189.471 224.036, 188.417 224.079 C 187.252 224.127, 187.015 224.364, 187.813 224.683 M 164.762 225.707 C 166.006 225.946, 167.806 225.937, 168.762 225.687 C 169.718 225.437, 168.700 225.241, 166.500 225.252 C 164.300 225.263, 163.518 225.468, 164.762 225.707 M 178.762 225.707 C 180.006 225.946, 181.806 225.937, 182.762 225.687 C 183.718 225.437, 182.700 225.241, 180.500 225.252 C 178.300 225.263, 177.518 225.468, 178.762 225.707" stroke="none" fill="#f9530d" fill-rule="evenodd"/></svg>